<svg width="21" height="21" viewBox="0 0 21 21" fill="none" xmlns="http://www.w3.org/2000/svg">
<path d="M10.8799 0.792969C16.3839 0.792969 20.8458 5.25483 20.8458 10.7588C20.8458 16.2628 16.3839 20.7247 10.8799 20.7247C5.37593 20.7247 0.914062 16.2628 0.914062 10.7588C0.914062 5.25483 5.37593 0.792969 10.8799 0.792969ZM10.8799 6.12354C10.3679 6.12354 9.95286 6.5386 9.95286 7.0506V9.83177H7.17169C6.6597 9.83177 6.24464 10.2468 6.24464 10.7588C6.24464 11.2708 6.6597 11.6859 7.17169 11.6859H9.95286V14.467C9.95286 14.9791 10.3679 15.3941 10.8799 15.3941C11.3919 15.3941 11.807 14.9791 11.807 14.467V11.6859H14.5881C15.1002 11.6859 15.5152 11.2708 15.5152 10.7588C15.5152 10.2468 15.1002 9.83177 14.5881 9.83177H11.807V7.0506C11.807 6.5386 11.3919 6.12354 10.8799 6.12354Z" fill="black"/>
</svg>
