<svg width="210" height="45" viewBox="0 0 210 45" fill="none" xmlns="http://www.w3.org/2000/svg">
<mask id="path-1-inside-1_1766_3226" fill="white">
<path d="M0 8C0 3.58172 3.58172 0 8 0H202C206.418 0 210 3.58172 210 8V37C210 41.4183 206.418 45 202 45H8C3.58172 45 0 41.4183 0 37V8Z"/>
</mask>
<path d="M0 8C0 3.58172 3.58172 0 8 0H202C206.418 0 210 3.58172 210 8V37C210 41.4183 206.418 45 202 45H8C3.58172 45 0 41.4183 0 37V8Z" fill="url(#paint0_linear_1766_3226)"/>
<path d="M0 8C0 3.58172 3.58172 0 8 0H202C206.418 0 210 3.58172 210 8V37C210 41.4183 206.418 45 202 45H8C3.58172 45 0 41.4183 0 37V8Z" fill="black" fill-opacity="0.05"/>
<path d="M8 0V1H202V0V-1H8V0ZM210 8H209V37H210H211V8H210ZM202 45V44H8V45V46H202V45ZM0 37H1V8H0H-1V37H0ZM8 45V44C4.13401 44 1 40.866 1 37H0H-1C-1 41.9706 3.02944 46 8 46V45ZM210 37H209C209 40.866 205.866 44 202 44V45V46C206.971 46 211 41.9706 211 37H210ZM202 0V1C205.866 1 209 4.13401 209 8H210H211C211 3.02944 206.971 -1 202 -1V0ZM8 0V-1C3.02944 -1 -1 3.02944 -1 8H0H1C1 4.13401 4.13401 1 8 1V0Z" fill="url(#paint1_linear_1766_3226)" mask="url(#path-1-inside-1_1766_3226)"/>
<path d="M8 0V1H202V0V-1H8V0ZM210 8H209V37H210H211V8H210ZM202 45V44H8V45V46H202V45ZM0 37H1V8H0H-1V37H0ZM8 45V44C4.13401 44 1 40.866 1 37H0H-1C-1 41.9706 3.02944 46 8 46V45ZM210 37H209C209 40.866 205.866 44 202 44V45V46C206.971 46 211 41.9706 211 37H210ZM202 0V1C205.866 1 209 4.13401 209 8H210H211C211 3.02944 206.971 -1 202 -1V0ZM8 0V-1C3.02944 -1 -1 3.02944 -1 8H0H1C1 4.13401 4.13401 1 8 1V0Z" fill="black" fill-opacity="0.05" mask="url(#path-1-inside-1_1766_3226)"/>
<path d="M50.522 27.266C49.6446 27.266 48.87 27.1213 48.198 26.832C47.5353 26.5333 46.9753 26.1367 46.518 25.642C46.07 25.138 45.7293 24.5733 45.496 23.948C45.272 23.3133 45.16 22.6553 45.16 21.974V21.666C45.16 21.022 45.272 20.392 45.496 19.776C45.72 19.16 46.0466 18.6047 46.476 18.11C46.9146 17.6153 47.4513 17.2233 48.086 16.934C48.73 16.6353 49.4673 16.486 50.298 16.486C51.194 16.486 51.9873 16.654 52.678 16.99C53.3686 17.3167 53.924 17.7787 54.344 18.376C54.764 18.964 55.0113 19.65 55.086 20.434H53.084C53.0186 19.9953 52.8553 19.622 52.594 19.314C52.3326 18.9967 52.0013 18.754 51.6 18.586C51.208 18.418 50.774 18.334 50.298 18.334C49.822 18.334 49.388 18.418 48.996 18.586C48.6133 18.754 48.2866 18.992 48.016 19.3C47.7453 19.608 47.5353 19.9767 47.386 20.406C47.246 20.8353 47.176 21.3113 47.176 21.834C47.176 22.4033 47.2553 22.912 47.414 23.36C47.5726 23.808 47.7966 24.1907 48.086 24.508C48.3753 24.816 48.7253 25.054 49.136 25.222C49.5466 25.3807 50.0086 25.46 50.522 25.46C51.2033 25.46 51.8006 25.32 52.314 25.04C52.8273 24.7507 53.2006 24.3773 53.434 23.92L53.084 25.53V22.898H54.918V25.166C54.4793 25.8287 53.882 26.3467 53.126 26.72C52.37 27.084 51.502 27.266 50.522 27.266ZM50.2 23.29V21.806H55.772V23.29H50.2ZM60.6584 27.266C60.0051 27.266 59.4311 27.154 58.9364 26.93C58.4511 26.706 58.0451 26.4073 57.7184 26.034C57.4011 25.6513 57.1584 25.2267 56.9904 24.76C56.8317 24.2933 56.7524 23.8173 56.7524 23.332V23.066C56.7524 22.562 56.8317 22.0767 56.9904 21.61C57.1584 21.134 57.4011 20.714 57.7184 20.35C58.0451 19.9767 58.4464 19.6827 58.9224 19.468C59.3984 19.244 59.9491 19.132 60.5744 19.132C61.3957 19.132 62.0817 19.314 62.6324 19.678C63.1924 20.0327 63.6124 20.504 63.8924 21.092C64.1724 21.6707 64.3124 22.296 64.3124 22.968V23.668H57.5784V22.478H63.0944L62.4924 23.066C62.4924 22.5807 62.4224 22.1653 62.2824 21.82C62.1424 21.4747 61.9277 21.2087 61.6384 21.022C61.3584 20.8353 61.0037 20.742 60.5744 20.742C60.1451 20.742 59.7811 20.84 59.4824 21.036C59.1837 21.232 58.9551 21.5167 58.7964 21.89C58.6471 22.254 58.5724 22.6927 58.5724 23.206C58.5724 23.682 58.6471 24.1067 58.7964 24.48C58.9457 24.844 59.1744 25.1333 59.4824 25.348C59.7904 25.5533 60.1824 25.656 60.6584 25.656C61.1344 25.656 61.5217 25.5627 61.8204 25.376C62.1191 25.18 62.3104 24.942 62.3944 24.662H64.1864C64.0744 25.1847 63.8597 25.642 63.5424 26.034C63.2251 26.426 62.8191 26.7293 62.3244 26.944C61.8391 27.1587 61.2837 27.266 60.6584 27.266ZM69.242 27.098C68.542 27.098 67.9634 27.0093 67.506 26.832C67.058 26.6453 66.722 26.3373 66.498 25.908C66.274 25.4693 66.162 24.8813 66.162 24.144L66.176 17.256H67.996L67.982 24.27C67.982 24.6433 68.08 24.9327 68.276 25.138C68.4814 25.334 68.7707 25.432 69.144 25.432H70.334V27.098H69.242ZM64.958 20.826V19.398H70.334V20.826H64.958ZM74.9888 27V19.398H76.5288V22.66H76.3888C76.3888 21.8947 76.4868 21.2553 76.6828 20.742C76.8788 20.2193 77.1681 19.8273 77.5508 19.566C77.9428 19.2953 78.4281 19.16 79.0068 19.16H79.0908C79.6788 19.16 80.1641 19.2953 80.5468 19.566C80.9388 19.8273 81.2281 20.2193 81.4148 20.742C81.6108 21.2553 81.7088 21.8947 81.7088 22.66H81.2188C81.2188 21.8947 81.3168 21.2553 81.5128 20.742C81.7181 20.2193 82.0121 19.8273 82.3948 19.566C82.7868 19.2953 83.2721 19.16 83.8508 19.16H83.9348C84.5228 19.16 85.0128 19.2953 85.4048 19.566C85.7968 19.8273 86.0908 20.2193 86.2868 20.742C86.4921 21.2553 86.5948 21.8947 86.5948 22.66V27H84.6488V22.478C84.6488 22.002 84.5275 21.624 84.2848 21.344C84.0421 21.0547 83.6968 20.91 83.2488 20.91C82.8008 20.91 82.4415 21.0593 82.1708 21.358C81.9001 21.6473 81.7648 22.0393 81.7648 22.534V27H79.8188V22.478C79.8188 22.002 79.6975 21.624 79.4548 21.344C79.2121 21.0547 78.8668 20.91 78.4188 20.91C77.9708 20.91 77.6115 21.0593 77.3408 21.358C77.0701 21.6473 76.9348 22.0393 76.9348 22.534V27H74.9888ZM92.3284 27.266C91.6564 27.266 91.0637 27.1587 90.5504 26.944C90.037 26.7293 89.603 26.44 89.2484 26.076C88.8937 25.7027 88.623 25.2827 88.4364 24.816C88.259 24.3493 88.1704 23.864 88.1704 23.36V23.066C88.1704 22.5433 88.2637 22.0487 88.4504 21.582C88.6464 21.106 88.9217 20.686 89.2764 20.322C89.6404 19.9487 90.079 19.6593 90.5924 19.454C91.1057 19.2393 91.6844 19.132 92.3284 19.132C92.9724 19.132 93.551 19.2393 94.0644 19.454C94.5777 19.6593 95.0117 19.9487 95.3664 20.322C95.7304 20.686 96.0057 21.106 96.1924 21.582C96.379 22.0487 96.4724 22.5433 96.4724 23.066V23.36C96.4724 23.864 96.379 24.3493 96.1924 24.816C96.015 25.2827 95.749 25.7027 95.3944 26.076C95.0397 26.44 94.6057 26.7293 94.0924 26.944C93.579 27.1587 92.991 27.266 92.3284 27.266ZM92.3284 25.6C92.8044 25.6 93.2057 25.4973 93.5324 25.292C93.859 25.0773 94.1064 24.7927 94.2744 24.438C94.4424 24.074 94.5264 23.6633 94.5264 23.206C94.5264 22.7393 94.4377 22.3287 94.2604 21.974C94.0924 21.61 93.8404 21.3253 93.5044 21.12C93.1777 20.9053 92.7857 20.798 92.3284 20.798C91.871 20.798 91.4744 20.9053 91.1384 21.12C90.8117 21.3253 90.5597 21.61 90.3824 21.974C90.205 22.3287 90.1164 22.7393 90.1164 23.206C90.1164 23.6633 90.2004 24.074 90.3684 24.438C90.5457 24.7927 90.7977 25.0773 91.1244 25.292C91.451 25.4973 91.8524 25.6 92.3284 25.6ZM98.1763 27V19.398H99.7163V22.618H99.6743C99.6743 21.526 99.9076 20.7 100.374 20.14C100.841 19.58 101.527 19.3 102.432 19.3H102.712V20.994H102.18C101.527 20.994 101.018 21.1713 100.654 21.526C100.3 21.8713 100.122 22.3753 100.122 23.038V27H98.1763ZM107.362 27.266C106.708 27.266 106.134 27.154 105.64 26.93C105.154 26.706 104.748 26.4073 104.422 26.034C104.104 25.6513 103.862 25.2267 103.694 24.76C103.535 24.2933 103.456 23.8173 103.456 23.332V23.066C103.456 22.562 103.535 22.0767 103.694 21.61C103.862 21.134 104.104 20.714 104.422 20.35C104.748 19.9767 105.15 19.6827 105.626 19.468C106.102 19.244 106.652 19.132 107.278 19.132C108.099 19.132 108.785 19.314 109.336 19.678C109.896 20.0327 110.316 20.504 110.596 21.092C110.876 21.6707 111.016 22.296 111.016 22.968V23.668H104.282V22.478H109.798L109.196 23.066C109.196 22.5807 109.126 22.1653 108.986 21.82C108.846 21.4747 108.631 21.2087 108.342 21.022C108.062 20.8353 107.707 20.742 107.278 20.742C106.848 20.742 106.484 20.84 106.186 21.036C105.887 21.232 105.658 21.5167 105.5 21.89C105.35 22.254 105.276 22.6927 105.276 23.206C105.276 23.682 105.35 24.1067 105.5 24.48C105.649 24.844 105.878 25.1333 106.186 25.348C106.494 25.5533 106.886 25.656 107.362 25.656C107.838 25.656 108.225 25.5627 108.524 25.376C108.822 25.18 109.014 24.942 109.098 24.662H110.89C110.778 25.1847 110.563 25.642 110.246 26.034C109.928 26.426 109.522 26.7293 109.028 26.944C108.542 27.1587 107.987 27.266 107.362 27.266ZM117.833 27V18.25H119.821V27H117.833ZM114.879 18.53V16.78H122.775V18.53H114.879ZM126.918 27.266C126.246 27.266 125.654 27.1587 125.14 26.944C124.627 26.7293 124.193 26.44 123.838 26.076C123.484 25.7027 123.213 25.2827 123.026 24.816C122.849 24.3493 122.76 23.864 122.76 23.36V23.066C122.76 22.5433 122.854 22.0487 123.04 21.582C123.236 21.106 123.512 20.686 123.866 20.322C124.23 19.9487 124.669 19.6593 125.182 19.454C125.696 19.2393 126.274 19.132 126.918 19.132C127.562 19.132 128.141 19.2393 128.654 19.454C129.168 19.6593 129.602 19.9487 129.956 20.322C130.32 20.686 130.596 21.106 130.782 21.582C130.969 22.0487 131.062 22.5433 131.062 23.066V23.36C131.062 23.864 130.969 24.3493 130.782 24.816C130.605 25.2827 130.339 25.7027 129.984 26.076C129.63 26.44 129.196 26.7293 128.682 26.944C128.169 27.1587 127.581 27.266 126.918 27.266ZM126.918 25.6C127.394 25.6 127.796 25.4973 128.122 25.292C128.449 25.0773 128.696 24.7927 128.864 24.438C129.032 24.074 129.116 23.6633 129.116 23.206C129.116 22.7393 129.028 22.3287 128.85 21.974C128.682 21.61 128.43 21.3253 128.094 21.12C127.768 20.9053 127.376 20.798 126.918 20.798C126.461 20.798 126.064 20.9053 125.728 21.12C125.402 21.3253 125.15 21.61 124.972 21.974C124.795 22.3287 124.706 22.7393 124.706 23.206C124.706 23.6633 124.79 24.074 124.958 24.438C125.136 24.7927 125.388 25.0773 125.714 25.292C126.041 25.4973 126.442 25.6 126.918 25.6ZM138.086 27L135.538 23.444H134.404L137.638 19.398H139.668L136.686 23.136L136.728 22.156L140.284 27H138.086ZM132.766 27V16.78H134.712V27H132.766ZM144.563 27.266C143.909 27.266 143.335 27.154 142.841 26.93C142.355 26.706 141.949 26.4073 141.623 26.034C141.305 25.6513 141.063 25.2267 140.895 24.76C140.736 24.2933 140.657 23.8173 140.657 23.332V23.066C140.657 22.562 140.736 22.0767 140.895 21.61C141.063 21.134 141.305 20.714 141.623 20.35C141.949 19.9767 142.351 19.6827 142.827 19.468C143.303 19.244 143.853 19.132 144.479 19.132C145.3 19.132 145.986 19.314 146.537 19.678C147.097 20.0327 147.517 20.504 147.797 21.092C148.077 21.6707 148.217 22.296 148.217 22.968V23.668H141.483V22.478H146.999L146.397 23.066C146.397 22.5807 146.327 22.1653 146.187 21.82C146.047 21.4747 145.832 21.2087 145.543 21.022C145.263 20.8353 144.908 20.742 144.479 20.742C144.049 20.742 143.685 20.84 143.387 21.036C143.088 21.232 142.859 21.5167 142.701 21.89C142.551 22.254 142.477 22.6927 142.477 23.206C142.477 23.682 142.551 24.1067 142.701 24.48C142.85 24.844 143.079 25.1333 143.387 25.348C143.695 25.5533 144.087 25.656 144.563 25.656C145.039 25.656 145.426 25.5627 145.725 25.376C146.023 25.18 146.215 24.942 146.299 24.662H148.091C147.979 25.1847 147.764 25.642 147.447 26.034C147.129 26.426 146.723 26.7293 146.229 26.944C145.743 27.1587 145.188 27.266 144.563 27.266ZM149.842 27V19.398H151.382V22.66H151.242C151.242 21.8853 151.345 21.2413 151.55 20.728C151.756 20.2053 152.059 19.8133 152.46 19.552C152.871 19.2907 153.38 19.16 153.986 19.16H154.07C154.976 19.16 155.662 19.454 156.128 20.042C156.595 20.6207 156.828 21.4887 156.828 22.646V27H154.882V22.478C154.882 22.0113 154.747 21.6333 154.476 21.344C154.215 21.0547 153.851 20.91 153.384 20.91C152.908 20.91 152.521 21.0593 152.222 21.358C151.933 21.6473 151.788 22.0393 151.788 22.534V27H149.842ZM161.678 27.238C160.633 27.238 159.812 27.0187 159.214 26.58C158.626 26.132 158.318 25.516 158.29 24.732H160.04C160.068 24.9933 160.213 25.2313 160.474 25.446C160.736 25.6607 161.146 25.768 161.706 25.768C162.173 25.768 162.542 25.684 162.812 25.516C163.092 25.348 163.232 25.1193 163.232 24.83C163.232 24.578 163.125 24.3773 162.91 24.228C162.705 24.0787 162.35 23.9807 161.846 23.934L161.174 23.864C160.325 23.7707 159.672 23.528 159.214 23.136C158.757 22.744 158.528 22.2213 158.528 21.568C158.528 21.0453 158.659 20.6067 158.92 20.252C159.182 19.8973 159.541 19.6313 159.998 19.454C160.465 19.2673 160.997 19.174 161.594 19.174C162.528 19.174 163.284 19.3793 163.862 19.79C164.441 20.2007 164.744 20.8027 164.772 21.596H163.022C163.004 21.3347 162.873 21.1107 162.63 20.924C162.388 20.7373 162.038 20.644 161.58 20.644C161.17 20.644 160.852 20.7233 160.628 20.882C160.404 21.0407 160.292 21.246 160.292 21.498C160.292 21.7407 160.381 21.9273 160.558 22.058C160.745 22.1887 161.044 22.2773 161.454 22.324L162.126 22.394C163.022 22.4873 163.722 22.7347 164.226 23.136C164.74 23.5373 164.996 24.0787 164.996 24.76C164.996 25.264 164.856 25.7027 164.576 26.076C164.306 26.44 163.923 26.7247 163.428 26.93C162.934 27.1353 162.35 27.238 161.678 27.238Z" fill="#313131"/>
<defs>
<linearGradient id="paint0_linear_1766_3226" x1="0" y1="0" x2="204.426" y2="65.2883" gradientUnits="userSpaceOnUse">
<stop stop-color="#F9BC2E"/>
<stop offset="0.132392" stop-color="#E29A1E"/>
<stop offset="0.302201" stop-color="#FFCD38"/>
<stop offset="0.728712" stop-color="#F0AF30"/>
<stop offset="0.834676" stop-color="#E29A1E"/>
<stop offset="0.960427" stop-color="#FFCD38"/>
<stop offset="1" stop-color="#DD931A"/>
</linearGradient>
<linearGradient id="paint1_linear_1766_3226" x1="0" y1="0" x2="204.426" y2="65.2883" gradientUnits="userSpaceOnUse">
<stop stop-color="#F9BC2E"/>
<stop offset="0.132392" stop-color="#E29A1E"/>
<stop offset="0.302201" stop-color="#FFCD38"/>
<stop offset="0.728712" stop-color="#F0AF30"/>
<stop offset="0.834676" stop-color="#E29A1E"/>
<stop offset="0.960427" stop-color="#FFCD38"/>
<stop offset="1" stop-color="#DD931A"/>
</linearGradient>
</defs>
</svg>
