<svg width="24" height="25" viewBox="0 0 24 25" fill="none" xmlns="http://www.w3.org/2000/svg">
<path fill-rule="evenodd" clip-rule="evenodd" d="M11.75 23.4297C5.81294 23.4297 1 18.6168 1 12.6797C1 6.74263 5.81294 1.92969 11.75 1.92969C17.6871 1.92969 22.5 6.74263 22.5 12.6797C22.5 18.6168 17.6871 23.4297 11.75 23.4297ZM16.5182 10.3199C16.8718 9.89559 16.8145 9.26503 16.3902 8.91146C15.9659 8.5579 15.3353 8.61522 14.9818 9.0395L10.6828 14.1983L8.45711 11.9726C8.06658 11.5821 7.43342 11.5821 7.04289 11.9726C6.65237 12.3631 6.65237 12.9963 7.04289 13.3868L10.0429 16.3868C10.2416 16.5855 10.5146 16.6914 10.7953 16.6787C11.076 16.6659 11.3384 16.5357 11.5182 16.3199L16.5182 10.3199Z" fill="#08D685"/>
</svg>
