<svg width="17" height="17" viewBox="0 0 17 17" fill="none" xmlns="http://www.w3.org/2000/svg">
<path d="M8.4987 1.50085C4.82536 1.50085 1.83203 4.49419 1.83203 8.16752C1.83203 11.8409 4.82536 14.8342 8.4987 14.8342C12.172 14.8342 15.1654 11.8409 15.1654 8.16752C15.1654 4.49419 12.172 1.50085 8.4987 1.50085ZM10.7387 9.70086C10.932 9.89419 10.932 10.2142 10.7387 10.4075C10.6387 10.5075 10.512 10.5542 10.3854 10.5542C10.2587 10.5542 10.132 10.5075 10.032 10.4075L8.4987 8.87419L6.96536 10.4075C6.86536 10.5075 6.7387 10.5542 6.61203 10.5542C6.48536 10.5542 6.3587 10.5075 6.2587 10.4075C6.06536 10.2142 6.06536 9.89419 6.2587 9.70086L7.79203 8.16752L6.2587 6.63419C6.06536 6.44085 6.06536 6.12085 6.2587 5.92752C6.45203 5.73419 6.77203 5.73419 6.96536 5.92752L8.4987 7.46085L10.032 5.92752C10.2254 5.73419 10.5454 5.73419 10.7387 5.92752C10.932 6.12085 10.932 6.44085 10.7387 6.63419L9.20537 8.16752L10.7387 9.70086Z" fill="#E03137"/>
</svg>
