<svg width="24" height="25" viewBox="0 0 24 25" fill="none" xmlns="http://www.w3.org/2000/svg">
<path d="M9 15.1914C9 12.363 9 10.9488 9.87868 10.0701C10.7574 9.19141 12.1716 9.19141 15 9.19141H16C18.8284 9.19141 20.2426 9.19141 21.1213 10.0701C22 10.9488 22 12.363 22 15.1914V16.1914C22 19.0198 22 20.434 21.1213 21.3127C20.2426 22.1914 18.8284 22.1914 16 22.1914H15C12.1716 22.1914 10.7574 22.1914 9.87868 21.3127C9 20.434 9 19.0198 9 16.1914V15.1914Z" stroke="black" stroke-width="1.5" stroke-linecap="round" stroke-linejoin="round"/>
<path d="M16.9999 9.19141C16.9975 6.23432 16.9528 4.70262 16.092 3.65384C15.9258 3.4513 15.7401 3.26559 15.5376 3.09937C14.4312 2.19141 12.7875 2.19141 9.5 2.19141C6.21252 2.19141 4.56878 2.19141 3.46243 3.09937C3.25989 3.26558 3.07418 3.4513 2.90796 3.65384C2 4.76019 2 6.40393 2 9.69141C2 12.9789 2 14.6226 2.90796 15.729C3.07417 15.9315 3.25989 16.1172 3.46243 16.2834C4.51121 17.1442 6.04291 17.1889 9 17.1913" stroke="black" stroke-width="1.5" stroke-linecap="round" stroke-linejoin="round"/>
</svg>
