<svg width="23" height="22" viewBox="0 0 23 22" fill="none" xmlns="http://www.w3.org/2000/svg">
<path d="M21.1278 11.2137C21.1278 10.4224 21.0623 9.84485 20.9204 9.24597H11.6992V12.8179H17.1119C17.0028 13.7055 16.4135 15.0424 15.104 15.9406L15.0856 16.0602L18.0012 18.2737L18.2032 18.2935C20.0583 16.6144 21.1278 14.144 21.1278 11.2137Z" fill="#4285F4"/>
<path d="M11.6957 20.625C14.3474 20.625 16.5736 19.7694 18.1996 18.2936L15.1004 15.9408C14.2711 16.5076 13.1579 16.9033 11.6957 16.9033C9.09848 16.9033 6.89414 15.2243 6.10835 12.9036L5.99318 12.9131L2.96152 15.2125L2.92188 15.3205C4.53693 18.4647 7.85439 20.625 11.6957 20.625Z" fill="#34A853"/>
<path d="M6.10908 12.9036C5.90174 12.3047 5.78175 11.663 5.78175 11C5.78175 10.3369 5.90174 9.69524 6.09817 9.09636L6.09268 8.96881L3.02303 6.63257L2.92259 6.67938C2.25695 7.98412 1.875 9.44929 1.875 11C1.875 12.5507 2.25695 14.0158 2.92259 15.3205L6.10908 12.9036Z" fill="#FBBC05"/>
<path d="M11.6957 5.09664C13.5399 5.09664 14.784 5.87733 15.4933 6.52974L18.2651 3.8775C16.5628 2.32681 14.3475 1.375 11.6957 1.375C7.85441 1.375 4.53694 3.53526 2.92188 6.6794L6.09746 9.09638C6.89416 6.77569 9.09851 5.09664 11.6957 5.09664Z" fill="#EB4335"/>
</svg>
