<svg width="20" height="20" viewBox="0 0 20 20" fill="none" xmlns="http://www.w3.org/2000/svg">
<path d="M16.1985 12.8652C16.969 12.1003 17.5639 11.3403 17.9527 10.7952C18.206 10.4399 18.3327 10.2623 18.3327 9.99935C18.3327 9.73643 18.206 9.55877 17.9527 9.20352C16.8143 7.60722 13.907 4.16602 9.99935 4.16602C9.24285 4.16602 8.52385 4.29498 7.84791 4.51457M5.6222 5.6222C3.942 6.75535 2.70114 8.2849 2.04605 9.20352C1.79269 9.55877 1.66602 9.73643 1.66602 9.99935C1.66602 10.2623 1.79269 10.4399 2.04605 10.7952C3.18443 12.3915 6.09167 15.8327 9.99935 15.8327C11.6583 15.8327 13.1369 15.2124 14.3765 14.3765" stroke="white" stroke-width="1.25" stroke-linecap="round" stroke-linejoin="round"/>
<path d="M8.21488 8.33398C7.77319 8.77565 7.5 9.3859 7.5 10.0599C7.5 11.4079 8.59275 12.5007 9.94075 12.5007C10.6147 12.5007 11.225 12.2275 11.6667 11.7857" stroke="white" stroke-width="1.25" stroke-linecap="round"/>
<path d="M2.5 2.5L17.5 17.5" stroke="white" stroke-width="1.25" stroke-linecap="round" stroke-linejoin="round"/>
</svg>
