<svg width="20" height="20" viewBox="0 0 20 20" fill="none" xmlns="http://www.w3.org/2000/svg">
<path fill-rule="evenodd" clip-rule="evenodd" d="M10.0018 7.64161C8.697 7.64161 7.64349 8.69512 7.64349 9.99994C7.64349 10.4253 7.7551 10.822 7.95207 11.1658L11.1677 7.95019C10.8239 7.75322 10.4271 7.64161 10.0018 7.64161ZM6.39349 9.99994C6.39349 8.00477 8.00665 6.39161 10.0018 6.39161C11 6.39161 11.8986 6.79614 12.5521 7.44967C12.7962 7.69375 12.7962 8.08947 12.5521 8.33355L8.33543 12.5502C8.09135 12.7943 7.69563 12.7943 7.45155 12.5502C6.79802 11.8967 6.39349 10.9981 6.39349 9.99994Z" fill="#111827"/>
<path fill-rule="evenodd" clip-rule="evenodd" d="M1.88307 7.50575C3.8755 4.37378 6.79517 2.48328 10.0018 2.48328C11.8765 2.48328 13.673 3.13628 15.2282 4.3093C15.5038 4.51717 15.5587 4.90907 15.3508 5.18464C15.1429 5.46022 14.751 5.51511 14.4755 5.30725C13.1139 4.28027 11.5771 3.73328 10.0018 3.73328C7.32528 3.73328 4.76173 5.30928 2.93751 8.17706L2.93698 8.17788C2.6415 8.64081 2.47266 9.30348 2.47266 10.0041C2.47266 10.7047 2.6415 11.3674 2.93698 11.8303C3.56513 12.8163 4.29275 13.6608 5.07601 14.3344C5.33772 14.5595 5.36742 14.9541 5.14236 15.2158C4.91729 15.4775 4.52267 15.5072 4.26097 15.2821C3.37757 14.5224 2.57157 13.5832 1.88304 12.5024C1.42873 11.7904 1.22266 10.8783 1.22266 10.0041C1.22266 9.12991 1.42874 8.21776 1.88307 7.50575Z" fill="#111827"/>
<path fill-rule="evenodd" clip-rule="evenodd" d="M16.3184 6.12127C16.5874 5.90492 16.9808 5.94758 17.1972 6.21655C17.5171 6.61428 17.8313 7.04165 18.1212 7.49839C18.5751 8.21025 18.781 9.12197 18.781 9.99578C18.781 10.87 18.5749 11.7821 18.1206 12.4941C16.1281 15.6261 13.2085 17.5166 10.0018 17.5166C8.88804 17.5166 7.79751 17.2811 6.77595 16.851C6.45783 16.717 6.30852 16.3505 6.44247 16.0324C6.57642 15.7143 6.9429 15.565 7.26103 15.6989C8.13947 16.0688 9.0656 16.2666 10.0018 16.2666C12.6784 16.2666 15.2419 14.6906 17.0661 11.8228L17.0667 11.822C17.3622 11.3591 17.531 10.6964 17.531 9.99578C17.531 9.29515 17.3622 8.63248 17.0667 8.16955L17.0658 8.16817C16.8056 7.75823 16.5199 7.36894 16.2231 7C16.0068 6.73103 16.0495 6.33761 16.3184 6.12127Z" fill="#111827"/>
<path fill-rule="evenodd" clip-rule="evenodd" d="M13.0402 9.96864C13.3796 10.0312 13.6041 10.3572 13.5415 10.6966C13.2778 12.1265 12.12 13.2842 10.6902 13.5479C10.3507 13.6105 10.0248 13.3861 9.96218 13.0466C9.89959 12.7072 10.124 12.3812 10.4635 12.3186C11.3836 12.149 12.1425 11.3901 12.3122 10.4699C12.3748 10.1305 12.7007 9.90604 13.0402 9.96864Z" fill="#111827"/>
<path fill-rule="evenodd" clip-rule="evenodd" d="M7.94377 12.058C8.18784 12.3021 8.18784 12.6978 7.94377 12.9419L3.7771 17.1086C3.53302 17.3526 3.13729 17.3526 2.89321 17.1086C2.64914 16.8645 2.64914 16.4687 2.89321 16.2247L7.05988 12.058C7.30396 11.8139 7.69969 11.8139 7.94377 12.058Z" fill="#111827"/>
<path fill-rule="evenodd" clip-rule="evenodd" d="M17.1104 2.89133C17.3545 3.13541 17.3545 3.53114 17.1104 3.77522L12.9438 7.94188C12.6997 8.18596 12.304 8.18596 12.0599 7.94188C11.8158 7.69781 11.8158 7.30208 12.0599 7.058L16.2265 2.89133C16.4706 2.64726 16.8664 2.64726 17.1104 2.89133Z" fill="#111827"/>
</svg>
