<svg width="17" height="24" viewBox="0 0 17 24" fill="none" xmlns="http://www.w3.org/2000/svg">
<path d="M13.1604 0.765788C13.7619 0.855553 14.4165 1.0727 14.7919 1.72283C15.1662 2.37136 15.0294 3.04718 14.8093 3.61458C14.5975 4.16062 14.222 4.82111 13.7847 5.59033L12.5231 7.80966C12.2845 8.22936 12.1309 8.50087 12.0332 8.70897C11.9597 8.86513 11.9462 8.92912 11.944 8.9397C11.9478 9.06697 12.0149 9.18185 12.1195 9.24663C12.1309 9.25027 12.1929 9.26942 12.3591 9.2824C12.5868 9.30021 12.9323 9.30083 13.4133 9.30083C13.9734 9.30081 14.4433 9.3008 14.8098 9.32888C15.1641 9.35601 15.5816 9.41625 15.9314 9.64882C16.6106 10.1003 16.9639 10.9061 16.84 11.711C16.7762 12.125 16.5413 12.4742 16.3229 12.756C16.0972 13.0472 15.7813 13.3966 15.4044 13.8133L8.99727 20.8981C8.40957 21.5482 7.9148 22.0953 7.51227 22.4463C7.30762 22.6247 7.06574 22.8081 6.79601 22.9176C6.49878 23.0382 6.10666 23.0894 5.71719 22.8865C5.32859 22.684 5.146 22.3343 5.07336 22.0236C5.00721 21.7406 5.0168 21.4375 5.04388 21.1667C5.09713 20.6341 5.25667 19.9125 5.44634 19.0547L6.24643 15.4354C6.40516 14.7175 6.50199 14.2696 6.52673 13.9418C6.56077 13.6716 6.32507 13.5556 6.20295 13.5316C5.88037 13.4848 5.42559 13.4828 4.69359 13.4828H4.10227C3.30833 13.4828 2.61721 13.4829 2.08316 13.4034C1.51817 13.3191 0.913332 13.117 0.533489 12.5294C0.15455 11.9433 0.216448 11.3087 0.368775 10.7578C0.513115 10.2358 0.793547 9.60161 1.11631 8.87176L3.23639 4.07649C3.53496 3.40114 3.78603 2.83324 4.04208 2.38861C4.31344 1.91739 4.62699 1.51668 5.08505 1.21744C5.5434 0.918001 6.03591 0.792383 6.57566 0.734347C7.08441 0.679656 7.70316 0.679668 8.43799 0.67969H10.9447C11.8254 0.679633 12.5829 0.679587 13.1604 0.765788Z" fill="#00BC7F"/>
</svg>
