<svg width="40" height="40" viewBox="0 0 40 40" fill="none" xmlns="http://www.w3.org/2000/svg">
<path d="M20 0.5C30.7696 0.5 39.5 9.23045 39.5 20C39.5 30.7696 30.7696 39.5 20 39.5C9.23045 39.5 0.5 30.7696 0.5 20C0.5 9.23045 9.23045 0.5 20 0.5Z" fill="#313131" fill-opacity="0.4"/>
<path d="M20 0.5C30.7696 0.5 39.5 9.23045 39.5 20C39.5 30.7696 30.7696 39.5 20 39.5C9.23045 39.5 0.5 30.7696 0.5 20C0.5 9.23045 9.23045 0.5 20 0.5Z" stroke="url(#paint0_linear_2133_7680)"/>
<path d="M12 20H28" stroke="white" stroke-linecap="round" stroke-linejoin="round"/>
<path d="M12 14H28" stroke="white" stroke-linecap="round" stroke-linejoin="round"/>
<path d="M12 26H28" stroke="white" stroke-linecap="round" stroke-linejoin="round"/>
<defs>
<linearGradient id="paint0_linear_2133_7680" x1="-17.5269" y1="32.5913" x2="-16.9932" y2="8.29279" gradientUnits="userSpaceOnUse">
<stop stop-color="#F9BC2E" stop-opacity="0.2"/>
<stop offset="0.132392" stop-color="#E29A1E" stop-opacity="0.2"/>
<stop offset="0.302201" stop-color="#FFCD38" stop-opacity="0.2"/>
<stop offset="0.728712" stop-color="#F0AF30"/>
<stop offset="0.834676" stop-color="#E29A1E"/>
<stop offset="0.960427" stop-color="#FFCD38"/>
<stop offset="1" stop-color="#DD931A"/>
</linearGradient>
</defs>
</svg>
