<svg width="24" height="25" viewBox="0 0 24 25" fill="none" xmlns="http://www.w3.org/2000/svg">
<path d="M16.3884 3.19141L17.3913 4.16715C17.8393 4.60306 18.0633 4.82102 17.9844 5.00622C17.9056 5.19141 17.5888 5.19141 16.9552 5.19141H9.19422C5.22096 5.19141 2 8.32542 2 12.1914C2 13.6786 2.47668 15.0576 3.2895 16.1914" stroke="black" stroke-width="1.5" stroke-linecap="round" stroke-linejoin="round"/>
<path d="M7.61156 21.1914L6.60875 20.2157C6.16074 19.7797 5.93673 19.5618 6.01557 19.3766C6.09441 19.1914 6.4112 19.1914 7.04478 19.1914H14.8058C18.779 19.1914 22 16.0574 22 12.1914C22 10.7042 21.5233 9.32524 20.7105 8.19141" stroke="black" stroke-width="1.5" stroke-linecap="round" stroke-linejoin="round"/>
</svg>
