<svg width="266" height="166" viewBox="0 0 266 166" fill="none" xmlns="http://www.w3.org/2000/svg">
<path d="M92.0681 9.8167C92.0681 13.9942 98.7639 17.3807 94.1045 17.3807C89.4451 17.3807 85.668 13.9942 85.668 9.8167C85.668 5.63921 89.4451 2.25269 94.1045 2.25269C98.7639 2.25269 92.0681 5.63921 92.0681 9.8167Z" fill="#FE964A"/>
<path d="M158.23 6.16748L159.362 9.65188H163.026L160.062 11.8054L161.194 15.2898L158.23 13.1363L155.266 15.2898L156.398 11.8054L153.434 9.65188H157.098L158.23 6.16748Z" fill="#FE964A"/>
<path d="M34.378 79.8228C34.378 79.8228 45.126 74.4695 47.5643 77.2753C48.9038 78.8168 49.9154 80.6838 48.7157 82.2007C47.7909 83.37 46.4558 83.5191 44.8914 83.2444C41.5786 82.6626 41.6288 78.0621 42.9586 75.213C44.7947 71.2792 54.5412 73.6011 54.5412 73.6011" stroke="#0BA259" stroke-width="2.01707"/>
<circle cx="229.217" cy="74.4598" r="5.88312" fill="#FFEDEC"/>
<path d="M56.0469 136.158L56.884 128.938L62.7194 132.638L63.3846 126.581L68.7074 130.248L70.3651 123.7" stroke="#2F78EE" stroke-width="1.68089"/>
<path d="M193.3 22.0924C193.3 22.0924 192.482 17.2317 194.83 16.2628C196.803 15.4489 198.513 19.0483 200.134 17.7434C201.776 16.4216 197.677 14.3275 199.012 12.7466C200.417 11.0827 204.928 12.7466 204.928 12.7466" stroke="#2F78EE" stroke-width="2.01707"/>
<path d="M32.9537 14.8074L54.5601 25.5636L49.1599 32.9278L32.9537 14.8074Z" fill="#2F78EE"/>
<circle cx="224.346" cy="94.4801" r="2.52134" fill="#FFEDEC"/>
<path d="M200.116 127.669C202.887 127.948 205.581 123.733 205.27 126.824C204.959 129.914 202.46 132.194 199.689 131.915C196.918 131.636 194.924 128.904 195.235 125.814C195.546 122.723 197.345 127.39 200.116 127.669Z" fill="#2F78EE"/>
<path d="M209.11 39.1604L210.996 44.9677H217.103L212.163 48.5569L214.05 54.3642L209.11 50.7751L204.17 54.3642L206.056 48.5569L201.116 44.9677H207.223L209.11 39.1604Z" fill="#0BA259"/>
<rect x="82.8008" y="25.9905" width="100" height="100" rx="50" fill="#27A376"/>
<g filter="url(#filter0_d_2147_26877)">
<rect x="102.801" y="45.9905" width="60" height="60" rx="30" fill="white" shape-rendering="crispEdges"/>
<path fill-rule="evenodd" clip-rule="evenodd" d="M143.685 68.8566C144.173 69.3448 144.173 70.1362 143.685 70.6244L131.185 83.1244C130.697 83.6125 129.905 83.6125 129.417 83.1244L123.167 76.8744C122.679 76.3862 122.679 75.5948 123.167 75.1066C123.655 74.6184 124.447 74.6184 124.935 75.1066L130.301 80.4727L141.917 68.8566C142.405 68.3684 143.197 68.3684 143.685 68.8566Z" fill="#111827"/>
</g>
<defs>
<filter id="filter0_d_2147_26877" x="62.8008" y="25.9905" width="140" height="140" filterUnits="userSpaceOnUse" color-interpolation-filters="sRGB">
<feFlood flood-opacity="0" result="BackgroundImageFix"/>
<feColorMatrix in="SourceAlpha" type="matrix" values="0 0 0 0 0 0 0 0 0 0 0 0 0 0 0 0 0 0 127 0" result="hardAlpha"/>
<feOffset dy="20"/>
<feGaussianBlur stdDeviation="20"/>
<feComposite in2="hardAlpha" operator="out"/>
<feColorMatrix type="matrix" values="0 0 0 0 0 0 0 0 0 0 0 0 0 0 0 0 0 0 0.3 0"/>
<feBlend mode="normal" in2="BackgroundImageFix" result="effect1_dropShadow_2147_26877"/>
<feBlend mode="normal" in="SourceGraphic" in2="effect1_dropShadow_2147_26877" result="shape"/>
</filter>
</defs>
</svg>
