<svg width="24" height="25" viewBox="0 0 24 25" fill="none" xmlns="http://www.w3.org/2000/svg">
<path d="M2 11.6914C2 12.796 2.89543 13.6914 4 13.6914C5.65685 13.6914 7 12.3483 7 10.6914V6.69141C7 5.03456 5.65685 3.69141 4 3.69141C2.89543 3.69141 2 4.58684 2 5.69141V11.6914Z" stroke="black" stroke-width="1.5" stroke-linecap="round" stroke-linejoin="round"/>
<path d="M15.4787 16.3851L15.2124 15.5251C14.9942 14.8203 14.8851 14.4679 14.969 14.1896C15.0369 13.9645 15.1859 13.7704 15.389 13.6427C15.64 13.4849 16.0197 13.4849 16.7791 13.4849H17.1831C19.7532 13.4849 21.0382 13.4849 21.6452 12.7241C21.7145 12.6372 21.7762 12.5447 21.8296 12.4477C22.2965 11.5993 21.7657 10.4563 20.704 8.17031C19.7297 6.07252 19.2425 5.02363 18.338 4.40626C18.2505 4.34649 18.1605 4.29011 18.0683 4.23727C17.116 3.69141 15.9362 3.69141 13.5764 3.69141H13.0646C10.2057 3.69141 8.77628 3.69141 7.88814 4.55194C7 5.41247 7 6.79748 7 9.56748V10.5411C7 11.9968 7 12.7246 7.25834 13.3908C7.51668 14.057 8.01135 14.6048 9.00069 15.7003L13.0921 20.2308C13.1947 20.3445 13.246 20.4013 13.2913 20.4407C13.7135 20.8081 14.3652 20.7668 14.7344 20.3491C14.774 20.3043 14.8172 20.2415 14.9036 20.1159C15.0388 19.9194 15.1064 19.8211 15.1654 19.7237C15.6928 18.8523 15.8524 17.817 15.6108 16.8343C15.5838 16.7245 15.5488 16.6113 15.4787 16.3851Z" stroke="black" stroke-width="1.5" stroke-linecap="round" stroke-linejoin="round"/>
</svg>
