<svg width="24" height="25" viewBox="0 0 24 25" fill="none" xmlns="http://www.w3.org/2000/svg">
<path d="M2 12.6914C2 11.5868 2.89543 10.6914 4 10.6914C5.65685 10.6914 7 12.0345 7 13.6914V17.6914C7 19.3483 5.65685 20.6914 4 20.6914C2.89543 20.6914 2 19.796 2 18.6914V12.6914Z" stroke="black" stroke-width="1.5" stroke-linecap="round" stroke-linejoin="round"/>
<path d="M15.4787 7.99767L15.2124 8.85775C14.9942 9.56252 14.8851 9.9149 14.969 10.1932C15.0369 10.4183 15.1859 10.6124 15.389 10.7401C15.64 10.8979 16.0197 10.8979 16.7791 10.8979H17.1831C19.7532 10.8979 21.0382 10.8979 21.6452 11.6587C21.7145 11.7456 21.7762 11.8381 21.8296 11.9351C22.2965 12.7835 21.7657 13.9265 20.704 16.2125C19.7297 18.3103 19.2425 19.3592 18.338 19.9766C18.2505 20.0363 18.1605 20.0927 18.0683 20.1455C17.116 20.6914 15.9362 20.6914 13.5764 20.6914H13.0646C10.2057 20.6914 8.77628 20.6914 7.88814 19.8309C7 18.9703 7 17.5853 7 14.8153V13.8417C7 12.386 7 11.6582 7.25834 10.992C7.51668 10.3258 8.01135 9.77805 9.00069 8.68253L13.0921 4.15197C13.1947 4.03835 13.246 3.98153 13.2913 3.94216C13.7135 3.57469 14.3652 3.61605 14.7344 4.03376C14.774 4.07851 14.8172 4.14132 14.9036 4.26695C15.0388 4.46346 15.1064 4.56172 15.1654 4.65906C15.6928 5.53054 15.8524 6.56577 15.6108 7.54856C15.5838 7.65833 15.5488 7.77151 15.4787 7.99767Z" stroke="black" stroke-width="1.5" stroke-linecap="round" stroke-linejoin="round"/>
</svg>
