<svg width="17" height="17" viewBox="0 0 17 17" fill="none" xmlns="http://www.w3.org/2000/svg">
<path d="M8.4987 1.50085C4.82536 1.50085 1.83203 4.49419 1.83203 8.16752C1.83203 11.8409 4.82536 14.8342 8.4987 14.8342C12.172 14.8342 15.1654 11.8409 15.1654 8.16752C15.1654 4.49419 12.172 1.50085 8.4987 1.50085ZM11.6854 6.63419L7.90536 10.4142C7.81203 10.5075 7.68536 10.5609 7.55203 10.5609C7.4187 10.5609 7.29203 10.5075 7.1987 10.4142L5.31203 8.52752C5.1187 8.33419 5.1187 8.01419 5.31203 7.82085C5.50536 7.62752 5.82536 7.62752 6.0187 7.82085L7.55203 9.35419L10.9787 5.92752C11.172 5.73419 11.492 5.73419 11.6854 5.92752C11.8787 6.12085 11.8787 6.43419 11.6854 6.63419Z" fill="#27A376"/>
</svg>
