<svg width="1045" height="173" viewBox="0 0 1045 173" fill="none" xmlns="http://www.w3.org/2000/svg">
<g clip-path="url(#clip0_4494_16161)">
<path d="M132.497 2.71582L80.8887 65.5225L80.1172 66.4619L80.7158 67.5205L138.904 170.348H113.658L66.4111 86.8262L66.3975 86.8027L54.2734 66.1426L105.422 2.71582H132.497ZM26.0039 2.24512V131.157H1.77246V2.24512H26.0039Z" fill="white" fill-opacity="0.4" stroke="url(#paint0_linear_4494_16161)" stroke-width="3.54462"/>
</g>
<g clip-path="url(#clip1_4494_16161)">
<path d="M370.407 170.229H281.917V147.197H331.417L329.968 144.569L281.697 57.0215L280.145 54.2061L278.593 57.0215L216.2 170.229H189.903L280.145 4.29883L370.407 170.229Z" fill="white" fill-opacity="0.4" stroke="url(#paint1_linear_4494_16161)" stroke-width="3.54462"/>
</g>
<g clip-path="url(#clip2_4494_16161)">
<path d="M444.355 2.12402V170.463H420.124V2.12402H444.355Z" fill="white" fill-opacity="0.4" stroke="url(#paint2_linear_4494_16161)" stroke-width="3.54462"/>
</g>
<g clip-path="url(#clip3_4494_16161)">
<path d="M552.85 2.12402C560.508 2.12406 567.657 3.00737 574.327 4.76367C581.025 6.52737 587.156 8.91383 592.729 11.958V11.959C606.359 19.6915 615.491 30.4917 620.189 44.3652C620.357 45.1121 620.526 45.811 620.699 46.4385C620.87 47.0567 621.109 47.7239 621.406 48.4268V49.6201L621.56 49.9639C621.814 50.5374 621.985 51.2024 622.056 51.9746C622.145 52.9607 622.28 53.9217 622.456 54.8984C622.618 56.0156 622.691 56.8392 622.691 57.6602V64.2139C622.691 65.0456 622.616 65.8604 622.463 66.7021L622.435 66.8594V67.3359C622.27 68.2614 622.143 69.1534 622.058 70.0117C621.989 70.7 621.813 71.4553 621.513 72.2812L621.406 72.5742V73.498C620.789 75.0875 620.367 76.5307 620.151 77.833C617.804 84.5973 614.332 90.6593 609.748 96.0693C605.141 101.507 599.462 106.131 592.712 109.935L592.525 110.039L592.37 110.186C592.309 110.243 592.204 110.318 591.989 110.405L591.735 110.497C591.003 110.717 590.355 111.07 589.797 111.562L588.721 112.512L589.425 113.762L621.409 170.526H596.155L567.348 119.748L566.743 118.685L565.535 118.871C564.02 119.105 562.498 119.283 560.965 119.428L559.446 119.562C557.412 119.708 555.206 119.793 552.828 119.793H517.047V170.548H492.858V100.562L518.808 101.364H558.005V101.241C563.275 101.036 568.165 99.9111 572.671 97.8408C577.616 95.5686 581.912 92.5513 585.542 88.7871C589.157 85.0387 592.033 80.7561 594.191 75.9717C596.372 71.1373 597.453 66.0701 597.453 60.8086C597.453 55.5342 596.367 50.6861 594.196 45.7852C592.037 40.9102 589.156 36.6166 585.527 32.9434C581.904 29.2754 577.635 26.2833 572.67 24.0117H572.671C567.664 21.7111 562.16 20.5732 556.232 20.5732H492.858V2.12402H552.85Z" fill="white" fill-opacity="0.4" stroke="url(#paint3_linear_4494_16161)" stroke-width="3.54462"/>
</g>
<g clip-path="url(#clip4_4494_16161)">
<path d="M761.876 1.77246C774.49 1.77247 786.345 4.00355 797.433 8.43457C808.55 12.8773 818.211 18.9308 826.392 26.5664C834.573 34.2022 841.033 43.1772 845.734 53.4824L845.735 53.4854C850.443 63.7588 852.791 74.7704 852.791 86.541C852.791 98.3061 850.446 109.039 845.737 119.251C841.014 129.496 834.574 138.43 826.392 146.066C818.212 153.701 808.551 159.734 797.43 164.199C786.342 168.63 774.489 170.86 761.876 170.86C749.262 170.86 737.452 168.629 726.452 164.2C715.42 159.758 705.801 153.704 697.617 146.066C689.434 138.428 682.974 129.495 678.273 119.254L678.271 119.251L677.838 118.292C673.42 108.36 671.218 97.7951 671.218 86.541C671.218 74.9194 673.565 63.7781 678.273 53.4834C682.997 43.175 689.438 34.2005 697.617 26.5664C705.801 18.9286 715.42 12.8748 726.452 8.43262C737.452 4.00334 749.262 1.77246 761.876 1.77246ZM761.876 22.3418C752.87 22.3418 744.37 24.0126 736.37 27.3623C728.397 30.7011 721.42 35.2989 715.433 41.1104L715.431 41.1123C709.441 46.9482 704.707 53.7748 701.234 61.5781C697.747 69.4138 696.006 77.7552 696.006 86.5195C696.006 95.2843 697.748 103.585 701.237 111.359C704.712 119.101 709.448 125.844 715.44 131.594C721.428 137.339 728.402 141.891 736.37 145.228C744.367 148.576 752.867 150.27 761.876 150.27C770.88 150.27 779.421 148.598 787.503 145.229L787.504 145.23C795.558 141.895 802.577 137.342 808.568 131.594C814.561 125.844 819.296 119.101 822.771 111.359C826.261 103.585 828.003 95.3061 828.003 86.5195C828.003 77.7334 826.262 69.4136 822.774 61.5781C819.301 53.7748 814.568 46.9482 808.578 41.1123C802.584 35.2728 795.561 30.6964 787.504 27.3594C779.423 24.0124 770.882 22.3418 761.876 22.3418Z" fill="white" fill-opacity="0.4" stroke="url(#paint4_linear_4494_16161)" stroke-width="3.54462"/>
</g>
<g clip-path="url(#clip5_4494_16161)">
<path d="M998.504 65.0039C1004.32 65.2264 1009.75 66.5527 1014.81 68.9736C1020.42 71.6518 1025.28 75.3571 1029.4 80.1016L1029.41 80.1084C1033.56 84.8425 1036.86 90.397 1039.3 96.749C1041.72 103.066 1042.95 109.853 1042.95 117.145C1042.95 124.443 1041.72 131.488 1039.3 137.867C1036.86 144.285 1033.56 149.907 1029.4 154.729C1025.51 159.24 1020.99 162.837 1015.83 165.546L1014.79 166.074C1009.23 168.818 1003.22 170.176 996.731 170.176H901.319V150.548H996.731C1000.83 150.548 1004.68 149.677 1008.31 147.957C1011.91 146.244 1015.05 143.851 1017.79 140.846L1017.8 140.835C1020.51 137.802 1022.66 134.295 1024.19 130.263C1025.73 126.234 1026.49 121.906 1026.49 117.316C1026.49 112.716 1025.73 108.603 1024.19 104.584C1022.66 100.577 1020.53 97.079 1017.77 94.1143H1017.77C1015.22 91.3548 1012.29 89.1245 1008.98 87.4521L1008.31 87.125C1005.32 85.6969 1002.14 84.8558 998.804 84.6104V84.5332H998.504V65.0039ZM947.54 2.43652H1042.95V22.042H947.54C943.446 22.042 939.588 22.914 935.965 24.6338C932.356 26.3467 929.217 28.7399 926.483 31.7451L926.474 31.7549C923.757 34.7884 921.61 38.2955 920.078 42.3281C918.539 46.3578 917.777 50.6858 917.777 55.2959C917.777 59.9185 918.543 64.0096 920.078 68.0283C921.608 72.0322 923.735 75.5277 926.492 78.4912V78.4922C929.042 81.2544 931.978 83.4866 935.296 85.1602L935.965 85.4873C939.57 87.2087 943.45 88.0781 947.54 88.0781H995.26V107.642H947.54C941.047 107.642 935.034 106.304 929.458 103.639C923.854 100.96 918.995 97.2544 914.869 92.5098L914.866 92.5068L914.097 91.6055C910.298 87.0529 907.254 81.8154 904.971 75.8623C902.548 69.5454 901.319 62.7586 901.319 55.4668C901.319 48.1684 902.55 41.1237 904.973 34.7451C907.41 28.3276 910.713 22.7058 914.873 17.8838C919.025 13.0714 923.89 9.29862 929.479 6.53516C935.047 3.79234 941.052 2.43652 947.54 2.43652Z" fill="white" fill-opacity="0.4" stroke="url(#paint5_linear_4494_16161)" stroke-width="3.54462"/>
</g>
<defs>
<linearGradient id="paint0_linear_4494_16161" x1="128.894" y1="6.39652" x2="11.676" y2="6.39652" gradientUnits="userSpaceOnUse">
<stop stop-color="white" stop-opacity="0.2"/>
<stop offset="0.485577" stop-color="white"/>
<stop offset="1" stop-color="white" stop-opacity="0.2"/>
</linearGradient>
<linearGradient id="paint1_linear_4494_16161" x1="356.246" y1="6.50558" x2="202.26" y2="6.50558" gradientUnits="userSpaceOnUse">
<stop stop-color="white" stop-opacity="0.2"/>
<stop offset="0.485577" stop-color="white"/>
<stop offset="1" stop-color="white" stop-opacity="0.2"/>
</linearGradient>
<linearGradient id="paint2_linear_4494_16161" x1="443.574" y1="6.28356" x2="420.636" y2="6.28356" gradientUnits="userSpaceOnUse">
<stop stop-color="white" stop-opacity="0.2"/>
<stop offset="0.485577" stop-color="white"/>
<stop offset="1" stop-color="white" stop-opacity="0.2"/>
</linearGradient>
<linearGradient id="paint3_linear_4494_16161" x1="612.201" y1="6.28652" x2="502.057" y2="6.28652" gradientUnits="userSpaceOnUse">
<stop stop-color="white" stop-opacity="0.2"/>
<stop offset="0.485577" stop-color="white"/>
<stop offset="1" stop-color="white" stop-opacity="0.2"/>
</linearGradient>
<linearGradient id="paint4_linear_4494_16161" x1="837.545" y1="5.95787" x2="684.673" y2="5.95787" gradientUnits="userSpaceOnUse">
<stop stop-color="white" stop-opacity="0.2"/>
<stop offset="0.485577" stop-color="white"/>
<stop offset="1" stop-color="white" stop-opacity="0.2"/>
</linearGradient>
<linearGradient id="paint5_linear_4494_16161" x1="1031.38" y1="6.57537" x2="911.489" y2="6.57537" gradientUnits="userSpaceOnUse">
<stop stop-color="white" stop-opacity="0.2"/>
<stop offset="0.485577" stop-color="white"/>
<stop offset="1" stop-color="white" stop-opacity="0.2"/>
</linearGradient>
<clipPath id="clip0_4494_16161">
<rect width="141.965" height="171.648" fill="white" transform="translate(0 0.472656)"/>
</clipPath>
<clipPath id="clip1_4494_16161">
<rect width="186.467" height="171.412" fill="white" transform="translate(186.922 0.589844)"/>
</clipPath>
<clipPath id="clip2_4494_16161">
<rect width="27.7763" height="171.883" fill="white" transform="translate(418.352 0.351562)"/>
</clipPath>
<clipPath id="clip3_4494_16161">
<rect width="133.399" height="171.883" fill="white" transform="translate(491.086 0.351562)"/>
</clipPath>
<clipPath id="clip4_4494_16161">
<rect width="185.14" height="172.59" fill="white" transform="translate(669.445)"/>
</clipPath>
<clipPath id="clip5_4494_16161">
<rect width="145.178" height="171.177" fill="white" transform="translate(899.547 0.707031)"/>
</clipPath>
</defs>
</svg>
