<svg width="130" height="15" viewBox="0 0 130 15" fill="none" xmlns="http://www.w3.org/2000/svg">
<path d="M128.673 11.5879C129.116 11.5879 129.445 11.7222 129.66 11.9909C129.889 12.2595 130.003 12.5618 130.003 12.8976C130.003 13.22 129.889 13.5223 129.66 13.8044C129.445 14.073 129.123 14.2073 128.693 14.2073C128.263 14.2073 127.934 14.073 127.706 13.8044C127.491 13.5223 127.377 13.22 127.363 12.8976C127.363 12.5752 127.471 12.2797 127.686 12.011C127.901 11.7289 128.23 11.5879 128.673 11.5879Z" fill="#E29A1E"/>
<path d="M126.152 12.3531V14.3681H118.011V14.3479H117.004V0.243164H125.89V2.25813H119.019V6.34852H124.137V8.36348H119.019V12.3531H126.152Z" fill="white"/>
<path d="M110.879 5.92545C111.402 6.12694 111.92 6.34187 112.43 6.57023C112.941 6.7986 113.397 7.08069 113.8 7.41652C114.203 7.75235 114.526 8.16206 114.768 8.64565C115.009 9.11581 115.13 9.70687 115.13 10.4188C115.144 11.0905 115.009 11.6883 114.727 12.2121C114.445 12.7226 114.076 13.1592 113.619 13.5219C113.162 13.8711 112.638 14.1398 112.047 14.3279C111.456 14.5025 110.858 14.5898 110.254 14.5898C109.582 14.5898 108.951 14.4958 108.36 14.3077C107.769 14.1196 107.252 13.8443 106.808 13.4816C106.378 13.1189 106.036 12.6689 105.781 12.1315C105.539 11.5808 105.418 10.9494 105.418 10.2375H107.433C107.433 10.6673 107.507 11.0367 107.655 11.3457C107.802 11.6412 108.004 11.883 108.259 12.0711C108.514 12.2457 108.81 12.3733 109.146 12.4539C109.495 12.5345 109.864 12.5748 110.254 12.5748C110.643 12.5748 111.033 12.5211 111.423 12.4136C111.812 12.2927 112.155 12.1181 112.45 11.8898C112.679 11.7017 112.847 11.48 112.954 11.2248C113.075 10.9696 113.129 10.7009 113.115 10.4188C113.115 10.0561 113.028 9.74045 112.853 9.47179C112.692 9.20313 112.47 8.96805 112.188 8.76655C111.906 8.56505 111.584 8.39042 111.221 8.24266C110.872 8.08146 110.516 7.9337 110.153 7.79937C109.656 7.59787 109.166 7.39637 108.682 7.19487C108.199 6.97994 107.769 6.718 107.393 6.40904C107.017 6.10008 106.714 5.72395 106.486 5.28066C106.258 4.83736 106.143 4.29332 106.143 3.64853C106.13 3.13807 106.231 2.65448 106.446 2.19775C106.661 1.72759 106.963 1.3246 107.352 0.988773C107.769 0.666378 108.226 0.417866 108.723 0.243235C109.233 0.0686041 109.75 -0.0119944 110.274 0.00143939C110.811 0.00143939 111.342 0.0887543 111.866 0.263384C112.39 0.438015 112.853 0.686528 113.256 1.00892C113.673 1.33132 114.002 1.72759 114.244 2.19775C114.499 2.66791 114.62 3.19852 114.606 3.78958H112.591C112.605 3.56122 112.558 3.33957 112.45 3.12464C112.356 2.90971 112.222 2.72836 112.047 2.5806C111.51 2.19104 110.919 2.00297 110.274 2.01641C109.67 1.98954 109.126 2.15745 108.642 2.52015C108.293 2.81568 108.131 3.19181 108.158 3.64853C108.158 3.95749 108.232 4.22616 108.38 4.45452C108.541 4.68288 108.749 4.88438 109.005 5.05901C109.26 5.23364 109.549 5.38812 109.871 5.52245C110.207 5.65678 110.543 5.79111 110.879 5.92545Z" fill="white"/>
<path d="M103.877 7.07426C103.662 7.70562 103.326 8.25638 102.869 8.72654C102.413 9.18326 101.875 9.52581 101.257 9.75417L104.119 14.3483H101.761L99.0611 10.0161H95.7767V14.3483H93.7617V0.263672H99.5447C100.109 0.263672 100.619 0.344271 101.076 0.505468C101.546 0.653232 101.963 0.861446 102.325 1.13011C102.688 1.38534 102.997 1.6943 103.252 2.05699C103.508 2.40625 103.716 2.7891 103.877 3.20553C104.105 3.83688 104.219 4.48167 104.219 5.13989C104.219 5.79812 104.105 6.44291 103.877 7.07426ZM95.7767 8.0213H99.6052C100.143 8.03473 100.633 7.89368 101.076 7.59816C101.519 7.28919 101.828 6.87948 102.003 6.36902C102.312 5.5496 102.312 4.73018 102.003 3.91076C101.828 3.4406 101.533 3.05104 101.116 2.74208C100.713 2.43312 100.19 2.27864 99.5447 2.27864H95.7767V8.0213Z" fill="white"/>
<path d="M92.1324 12.3531V14.3681H83.9919V14.3479H82.9844V0.243164H91.8705V2.25813H84.9994V6.34852H90.1174V8.36348H84.9994V12.3531H92.1324Z" fill="white"/>
<path d="M81.7259 0.243164L75.4593 14.3479H75.0361L68.7695 0.243164H70.9659L75.2578 9.89486L79.5497 0.243164H81.7259Z" fill="white"/>
<path d="M65.5469 14.3479V0.243164H67.5619V14.3479H65.5469Z" fill="white"/>
<path d="M63.3182 0.263672V9.69372C63.3182 10.4191 63.1973 11.0706 62.9555 11.6482C62.7137 12.2259 62.3778 12.7162 61.948 13.1192C61.5181 13.5087 61.0077 13.811 60.4166 14.0259C59.8255 14.2274 59.174 14.3281 58.4621 14.3281H55.1172V12.3132H58.4621C59.3352 12.3132 60.027 12.105 60.5375 11.6885C61.048 11.2721 61.3032 10.6072 61.3032 9.69372V2.27864H55.4396V0.263672H63.3182Z" fill="white"/>
<path d="M54.418 4.49475C54.7269 5.4082 54.8814 6.34852 54.8814 7.3157C54.8814 8.26945 54.7269 9.20305 54.418 10.1165C54.203 10.7076 53.9142 11.265 53.5515 11.7889C53.2023 12.2994 52.7791 12.7494 52.2821 13.139C51.7985 13.5151 51.241 13.8106 50.6096 14.0255C49.9783 14.2405 49.2798 14.3479 48.5141 14.3479H43.0938V0.243164H48.5141C49.2798 0.243164 49.9783 0.350629 50.6096 0.56556C51.241 0.780489 51.7985 1.08273 52.2821 1.47229C52.7791 1.84842 53.2023 2.29843 53.5515 2.82232C53.9142 3.33278 54.203 3.89026 54.418 4.49475ZM52.5239 9.43142C52.7657 8.74633 52.8866 8.04109 52.8866 7.3157C52.8866 6.57688 52.7657 5.85821 52.5239 5.15969C52.3761 4.75669 52.1813 4.38056 51.9395 4.0313C51.6977 3.66861 51.4089 3.35965 51.0731 3.10442C50.7373 2.83576 50.3544 2.62754 49.9245 2.47978C49.5081 2.31858 49.038 2.23798 48.5141 2.23798H45.1087V12.3531H48.5141C49.038 12.3531 49.5148 12.2792 49.9447 12.1315C50.3746 11.9703 50.7507 11.7621 51.0731 11.5068C51.4089 11.2382 51.6977 10.9292 51.9395 10.5799C52.1813 10.2173 52.3761 9.83441 52.5239 9.43142Z" fill="white"/>
<path d="M21.9712 14.3479C21.0309 14.3479 20.1309 14.1733 19.2711 13.824C18.4249 13.4614 17.6793 12.9375 17.0345 12.2524C16.3629 11.5673 15.8591 10.7949 15.5233 9.93516C15.1874 9.07544 15.0195 8.19557 15.0195 7.29555C15.0195 6.39553 15.1874 5.51566 15.5233 4.65594C15.8591 3.79622 16.3629 3.02382 17.0345 2.33873C17.6793 1.66708 18.4249 1.1499 19.2711 0.787206C20.1309 0.424511 21.0309 0.243164 21.9712 0.243164H34.3634C35.3037 0.243164 36.197 0.424511 37.0433 0.787206C37.903 1.1499 38.6553 1.66708 39.3001 2.33873C39.9718 3.02382 40.4755 3.79622 40.8113 4.65594C41.1472 5.51566 41.3151 6.39553 41.3151 7.29555C41.3151 8.19557 41.1472 9.07544 40.8113 9.93516C40.4755 10.7949 39.9718 11.5673 39.3001 12.2524C38.6553 12.9375 37.903 13.4614 37.0433 13.824C36.197 14.1733 35.3037 14.3479 34.3634 14.3479H21.9712ZM34.3634 12.3934C35.0216 12.3934 35.6463 12.2658 36.2373 12.0106C36.8418 11.7553 37.3791 11.3927 37.8493 10.9225C38.3329 10.412 38.6956 9.84784 38.9374 9.22992C39.1792 8.59856 39.3001 7.95377 39.3001 7.29555C39.3001 6.63733 39.1792 5.99254 38.9374 5.36118C38.6956 4.72983 38.3329 4.16563 37.8493 3.66861C37.3791 3.19845 36.8418 2.83576 36.2373 2.58053C35.6463 2.3253 35.0216 2.19768 34.3634 2.19768H21.9712C21.313 2.19768 20.6816 2.3253 20.0771 2.58053C19.4861 2.83576 18.9555 3.19845 18.4853 3.66861C18.0017 4.16563 17.639 4.72983 17.3972 5.36118C17.1554 5.99254 17.0345 6.63733 17.0345 7.29555C17.0345 7.95377 17.1554 8.59856 17.3972 9.22992C17.639 9.84784 18.0017 10.412 18.4853 10.9225C18.9555 11.3927 19.4861 11.7553 20.0771 12.0106C20.6816 12.2658 21.313 12.3934 21.9712 12.3934H34.3634Z" fill="white"/>
<path d="M13.2586 0.243164V14.3479H11.2436V3.97085L6.6293 9.06872L2.01498 3.97085V14.3479H0V0.243164H1.32989L6.6293 6.08657L11.9287 0.243164H13.2586Z" fill="white"/>
</svg>
