<svg width="168" height="20" viewBox="0 0 168 20" fill="none" xmlns="http://www.w3.org/2000/svg">
<path d="M166.034 15.8828C166.606 15.8828 167.03 16.0561 167.308 16.4028C167.602 16.7495 167.75 17.1395 167.75 17.5728C167.75 17.9888 167.602 18.3788 167.308 18.7428C167.03 19.0895 166.614 19.2628 166.06 19.2628C165.505 19.2628 165.08 19.0895 164.786 18.7428C164.508 18.3788 164.361 17.9888 164.344 17.5728C164.344 17.1568 164.482 16.7755 164.76 16.4288C165.037 16.0648 165.462 15.8828 166.034 15.8828Z" fill="#F95D2B"/>
<path d="M162.781 16.8682V19.4682H152.277V19.4422H150.977V1.24219H162.443V3.84219H153.577V9.12019H160.181V11.7202H153.577V16.8682H162.781Z" fill="black"/>
<path d="M143.069 8.57554C143.745 8.83554 144.413 9.11288 145.071 9.40755C145.73 9.70221 146.319 10.0662 146.839 10.4995C147.359 10.9329 147.775 11.4615 148.087 12.0855C148.399 12.6922 148.555 13.4549 148.555 14.3735C148.573 15.2402 148.399 16.0115 148.035 16.6875C147.671 17.3462 147.195 17.9095 146.605 18.3775C146.016 18.8282 145.34 19.1749 144.577 19.4175C143.815 19.6429 143.043 19.7555 142.263 19.7555C141.397 19.7555 140.582 19.6342 139.819 19.3915C139.057 19.1489 138.389 18.7935 137.817 18.3255C137.263 17.8575 136.821 17.2769 136.491 16.5835C136.179 15.8729 136.023 15.0582 136.023 14.1395H138.623C138.623 14.6942 138.719 15.1709 138.909 15.5695C139.1 15.9509 139.36 16.2629 139.689 16.5055C140.019 16.7309 140.4 16.8955 140.833 16.9995C141.284 17.1035 141.761 17.1555 142.263 17.1555C142.766 17.1555 143.269 17.0862 143.771 16.9475C144.274 16.7915 144.716 16.5662 145.097 16.2715C145.392 16.0289 145.609 15.7429 145.747 15.4135C145.903 15.0842 145.973 14.7375 145.955 14.3735C145.955 13.9055 145.843 13.4982 145.617 13.1515C145.409 12.8049 145.123 12.5015 144.759 12.2415C144.395 11.9815 143.979 11.7562 143.511 11.5655C143.061 11.3575 142.601 11.1669 142.133 10.9935C141.492 10.7335 140.859 10.4735 140.235 10.2135C139.611 9.93621 139.057 9.59821 138.571 9.19954C138.086 8.80088 137.696 8.31555 137.401 7.74355C137.107 7.17155 136.959 6.46954 136.959 5.63754C136.942 4.97888 137.072 4.35488 137.349 3.76554C137.627 3.15888 138.017 2.63888 138.519 2.20554C139.057 1.78954 139.646 1.46888 140.287 1.24354C140.946 1.01821 141.613 0.914211 142.289 0.931545C142.983 0.931545 143.667 1.04421 144.343 1.26954C145.019 1.49488 145.617 1.81554 146.137 2.23154C146.675 2.64754 147.099 3.15888 147.411 3.76554C147.741 4.37221 147.897 5.05688 147.879 5.81954H145.279C145.297 5.52488 145.236 5.23888 145.097 4.96154C144.976 4.68421 144.803 4.45021 144.577 4.25954C143.884 3.75688 143.121 3.51421 142.289 3.53154C141.509 3.49688 140.807 3.71354 140.183 4.18154C139.733 4.56288 139.525 5.04821 139.559 5.63754C139.559 6.03621 139.655 6.38288 139.845 6.67754C140.053 6.97221 140.322 7.23221 140.651 7.45754C140.981 7.68288 141.353 7.88221 141.769 8.05554C142.203 8.22888 142.636 8.40221 143.069 8.57554Z" fill="black"/>
<path d="M134.036 10.0575C133.759 10.8722 133.326 11.5829 132.736 12.1895C132.147 12.7789 131.454 13.2209 130.656 13.5155L134.348 19.4435H131.306L127.822 13.8535H123.584V19.4435H120.984V1.26953H128.446C129.174 1.26953 129.833 1.37353 130.422 1.58153C131.029 1.7722 131.566 2.04086 132.034 2.38753C132.502 2.71687 132.901 3.11553 133.23 3.58353C133.56 4.0342 133.828 4.5282 134.036 5.06553C134.331 5.8802 134.478 6.7122 134.478 7.56153C134.478 8.41087 134.331 9.24287 134.036 10.0575ZM123.584 11.2795H128.524C129.218 11.2969 129.85 11.1149 130.422 10.7335C130.994 10.3349 131.393 9.8062 131.618 9.14753C132.017 8.0902 132.017 7.03287 131.618 5.97553C131.393 5.36887 131.012 4.8662 130.474 4.46753C129.954 4.06887 129.278 3.86953 128.446 3.86953H123.584V11.2795Z" fill="black"/>
<path d="M118.874 16.8682V19.4682H108.37V19.4422H107.07V1.24219H118.536V3.84219H109.67V9.12019H116.274V11.7202H109.67V16.8682H118.874Z" fill="black"/>
<path d="M105.445 1.24219L97.3586 19.4422H96.8126L88.7266 1.24219H91.5606L97.0986 13.6962L102.637 1.24219H105.445Z" fill="black"/>
<path d="M84.5781 19.4422V1.24219H87.1781V19.4422H84.5781Z" fill="black"/>
<path d="M81.6992 1.26953V13.4375C81.6992 14.3735 81.5432 15.2142 81.2312 15.9595C80.9192 16.7049 80.4858 17.3375 79.9312 17.8575C79.3765 18.3602 78.7179 18.7502 77.9552 19.0275C77.1925 19.2875 76.3519 19.4175 75.4332 19.4175H71.1172V16.8175H75.4332C76.5599 16.8175 77.4525 16.5489 78.1112 16.0115C78.7698 15.4742 79.0992 14.6162 79.0992 13.4375V3.86953H71.5332V1.26953H81.6992Z" fill="black"/>
<path d="M70.2214 6.72819C70.62 7.90685 70.8194 9.12019 70.8194 10.3682C70.8194 11.5989 70.62 12.8035 70.2214 13.9822C69.944 14.7449 69.5714 15.4642 69.1034 16.1402C68.6527 16.7989 68.1067 17.3795 67.4654 17.8822C66.8414 18.3675 66.122 18.7489 65.3074 19.0262C64.4927 19.3035 63.5914 19.4422 62.6034 19.4422H55.6094V1.24219H62.6034C63.5914 1.24219 64.4927 1.38085 65.3074 1.65819C66.122 1.93552 66.8414 2.32552 67.4654 2.82819C68.1067 3.31352 68.6527 3.89419 69.1034 4.57019C69.5714 5.22885 69.944 5.94819 70.2214 6.72819ZM67.7774 13.0982C68.0894 12.2142 68.2454 11.3042 68.2454 10.3682C68.2454 9.41486 68.0894 8.48752 67.7774 7.58619C67.5867 7.06619 67.3354 6.58085 67.0234 6.13019C66.7114 5.66219 66.3387 5.26352 65.9054 4.93419C65.472 4.58752 64.978 4.31886 64.4234 4.12819C63.886 3.92019 63.2794 3.81619 62.6034 3.81619H58.2094V16.8682H62.6034C63.2794 16.8682 63.8947 16.7729 64.4494 16.5822C65.004 16.3742 65.4894 16.1055 65.9054 15.7762C66.3387 15.4295 66.7114 15.0309 67.0234 14.5802C67.3354 14.1122 67.5867 13.6182 67.7774 13.0982Z" fill="black"/>
<path d="M28.3528 19.4422C27.1395 19.4422 25.9781 19.2169 24.8688 18.7662C23.7768 18.2982 22.8148 17.6222 21.9828 16.7382C21.1161 15.8542 20.4661 14.8575 20.0328 13.7482C19.5995 12.6389 19.3828 11.5035 19.3828 10.3422C19.3828 9.18085 19.5995 8.04552 20.0328 6.93619C20.4661 5.82685 21.1161 4.83019 21.9828 3.94619C22.8148 3.07952 23.7768 2.41219 24.8688 1.94419C25.9781 1.47619 27.1395 1.24219 28.3528 1.24219H44.3428C45.5561 1.24219 46.7088 1.47619 47.8008 1.94419C48.9101 2.41219 49.8808 3.07952 50.7128 3.94619C51.5795 4.83019 52.2295 5.82685 52.6628 6.93619C53.0961 8.04552 53.3128 9.18085 53.3128 10.3422C53.3128 11.5035 53.0961 12.6389 52.6628 13.7482C52.2295 14.8575 51.5795 15.8542 50.7128 16.7382C49.8808 17.6222 48.9101 18.2982 47.8008 18.7662C46.7088 19.2169 45.5561 19.4422 44.3428 19.4422H28.3528ZM44.3428 16.9202C45.1921 16.9202 45.9981 16.7555 46.7608 16.4262C47.5408 16.0969 48.2341 15.6289 48.8408 15.0222C49.4648 14.3635 49.9328 13.6355 50.2448 12.8382C50.5568 12.0235 50.7128 11.1915 50.7128 10.3422C50.7128 9.49286 50.5568 8.66086 50.2448 7.84619C49.9328 7.03152 49.4648 6.30352 48.8408 5.66219C48.2341 5.05552 47.5408 4.58752 46.7608 4.25819C45.9981 3.92885 45.1921 3.76419 44.3428 3.76419H28.3528C27.5035 3.76419 26.6888 3.92885 25.9088 4.25819C25.1461 4.58752 24.4615 5.05552 23.8548 5.66219C23.2308 6.30352 22.7628 7.03152 22.4508 7.84619C22.1388 8.66086 21.9828 9.49286 21.9828 10.3422C21.9828 11.1915 22.1388 12.0235 22.4508 12.8382C22.7628 13.6355 23.2308 14.3635 23.8548 15.0222C24.4615 15.6289 25.1461 16.0969 25.9088 16.4262C26.6888 16.7555 27.5035 16.9202 28.3528 16.9202H44.3428Z" fill="black"/>
<path d="M17.108 1.24219V19.4422H14.508V6.05219L8.554 12.6302L2.6 6.05219V19.4422H0V1.24219H1.716L8.554 8.78219L15.392 1.24219H17.108Z" fill="black"/>
</svg>
