<svg width="214" height="24" viewBox="0 0 214 24" fill="none" xmlns="http://www.w3.org/2000/svg">
<path d="M211.662 19.0605C212.392 19.0605 212.933 19.2815 213.286 19.7235C213.662 20.1654 213.85 20.6626 213.85 21.215C213.85 21.7454 213.662 22.2426 213.286 22.7066C212.933 23.1485 212.403 23.3695 211.695 23.3695C210.988 23.3695 210.447 23.1485 210.071 22.7066C209.718 22.2426 209.53 21.7454 209.508 21.215C209.508 20.6847 209.685 20.1986 210.038 19.7566C210.392 19.2926 210.933 19.0605 211.662 19.0605Z" fill="#E29A1E"/>
<path d="M207.517 20.3211V23.6357H194.126V23.6025H192.469V0.400391H207.086V3.71498H195.783V10.4436H204.202V13.7582H195.783V20.3211H207.517Z" fill="white"/>
<path d="M182.391 9.74726C183.253 10.0787 184.103 10.4323 184.943 10.8079C185.783 11.1836 186.534 11.6476 187.197 12.2001C187.86 12.7525 188.39 13.4265 188.788 14.222C189.186 14.9954 189.385 15.9676 189.385 17.1388C189.407 18.2437 189.186 19.227 188.722 20.0888C188.258 20.9285 187.65 21.6466 186.899 22.2433C186.147 22.8178 185.286 23.2597 184.313 23.5691C183.341 23.8564 182.358 24 181.363 24C180.258 24 179.22 23.8453 178.248 23.536C177.275 23.2266 176.425 22.7736 175.695 22.177C174.988 21.5803 174.425 20.8401 174.005 19.9562C173.607 19.0502 173.408 18.0116 173.408 16.8405H176.723C176.723 17.5476 176.844 18.1553 177.087 18.6635C177.33 19.1497 177.662 19.5474 178.082 19.8568C178.502 20.144 178.988 20.354 179.54 20.4865C180.115 20.6191 180.722 20.6854 181.363 20.6854C182.004 20.6854 182.645 20.597 183.286 20.4202C183.927 20.2214 184.49 19.9341 184.976 19.5585C185.352 19.2491 185.628 18.8845 185.805 18.4646C186.004 18.0448 186.092 17.6028 186.07 17.1388C186.07 16.5422 185.926 16.0229 185.639 15.5809C185.374 15.139 185.009 14.7523 184.545 14.4208C184.081 14.0894 183.551 13.8021 182.954 13.559C182.38 13.2939 181.794 13.0508 181.198 12.8298C180.38 12.4984 179.573 12.1669 178.778 11.8355C177.982 11.4819 177.275 11.051 176.657 10.5428C176.038 10.0345 175.541 9.4158 175.165 8.68659C174.789 7.95738 174.601 7.06244 174.601 6.00178C174.579 5.16208 174.745 4.36658 175.099 3.61527C175.452 2.84187 175.949 2.17895 176.59 1.62652C177.275 1.09618 178.027 0.687382 178.844 0.400117C179.684 0.112853 180.535 -0.0197305 181.396 0.00236778C182.28 0.00236778 183.153 0.145999 184.015 0.433263C184.877 0.720528 185.639 1.12933 186.302 1.65966C186.987 2.19 187.528 2.84187 187.926 3.61527C188.346 4.38867 188.545 5.26152 188.523 6.2338H185.208C185.23 5.85814 185.153 5.49354 184.976 5.13998C184.822 4.78643 184.601 4.48811 184.313 4.24504C183.429 3.60422 182.457 3.29486 181.396 3.31696C180.402 3.27276 179.507 3.54898 178.712 4.14561C178.137 4.63175 177.872 5.25047 177.916 6.00178C177.916 6.51001 178.038 6.95196 178.281 7.32761C178.546 7.70327 178.888 8.03472 179.308 8.32199C179.728 8.60925 180.203 8.86337 180.733 9.08434C181.286 9.30532 181.838 9.52629 182.391 9.74726Z" fill="white"/>
<path d="M170.878 11.6369C170.524 12.6755 169.972 13.5815 169.22 14.3549C168.469 15.1062 167.585 15.6697 166.569 16.0453L171.275 23.6026H167.397L162.956 16.4762H157.553V23.6026H154.238V0.433594H163.751C164.679 0.433594 165.519 0.566178 166.27 0.831345C167.044 1.07441 167.729 1.41692 168.325 1.85887C168.922 2.27872 169.43 2.78695 169.85 3.38358C170.27 3.95811 170.612 4.58788 170.878 5.2729C171.253 6.31147 171.441 7.37214 171.441 8.4549C171.441 9.53767 171.253 10.5983 170.878 11.6369ZM157.553 13.1948H163.851C164.735 13.2169 165.541 12.9848 166.27 12.4987C167 11.9905 167.508 11.3165 167.795 10.4768C168.303 9.12887 168.303 7.78094 167.795 6.433C167.508 5.6596 167.022 5.01878 166.337 4.51054C165.674 4.0023 164.812 3.74818 163.751 3.74818H157.553V13.1948Z" fill="white"/>
<path d="M151.55 20.3211V23.6357H138.159V23.6025H136.502V0.400391H151.119V3.71498H139.817V10.4436H148.236V13.7582H139.817V20.3211H151.55Z" fill="white"/>
<path d="M134.432 0.400391L124.124 23.6025H123.428L113.119 0.400391H116.732L123.792 16.2773L130.852 0.400391H134.432Z" fill="white"/>
<path d="M107.822 23.6025V0.400391H111.137V23.6025H107.822Z" fill="white"/>
<path d="M104.156 0.433594V15.9459C104.156 17.1391 103.958 18.2108 103.56 19.161C103.162 20.1112 102.61 20.9178 101.903 21.5807C101.195 22.2215 100.356 22.7187 99.3834 23.0722C98.4111 23.4037 97.3394 23.5694 96.1683 23.5694H90.666V20.2548H96.1683C97.6046 20.2548 98.7426 19.9123 99.5823 19.2273C100.422 18.5423 100.842 17.4485 100.842 15.9459V3.74818H91.1964V0.433594H104.156Z" fill="white"/>
<path d="M89.5168 7.39418C90.025 8.89679 90.2791 10.4436 90.2791 12.0346C90.2791 13.6035 90.025 15.1393 89.5168 16.6419C89.1632 17.6142 88.6881 18.5312 88.0915 19.393C87.517 20.2327 86.8209 20.9729 86.0033 21.6138C85.2078 22.2325 84.2907 22.7186 83.2522 23.0722C82.2136 23.4257 81.0645 23.6025 79.805 23.6025H70.8887V0.400391H79.805C81.0645 0.400391 82.2136 0.577169 83.2522 0.930726C84.2907 1.28428 85.2078 1.78147 86.0033 2.42229C86.8209 3.04102 87.517 3.78127 88.0915 4.64307C88.6881 5.48276 89.1632 6.3998 89.5168 7.39418ZM86.401 15.5149C86.7988 14.388 86.9977 13.2279 86.9977 12.0346C86.9977 10.8193 86.7988 9.63705 86.401 8.48799C86.158 7.82507 85.8375 7.20635 85.4398 6.63182C85.042 6.03519 84.567 5.52696 84.0145 5.10711C83.4621 4.66516 82.8323 4.32266 82.1252 4.07959C81.4402 3.81442 80.6668 3.68184 79.805 3.68184H74.2033V20.3211H79.805C80.6668 20.3211 81.4512 20.1995 82.1583 19.9565C82.8655 19.6913 83.4842 19.3488 84.0145 18.9289C84.567 18.487 85.042 17.9788 85.4398 17.4042C85.8375 16.8076 86.158 16.1778 86.401 15.5149Z" fill="white"/>
<path d="M36.1405 23.6025C34.5937 23.6025 33.1131 23.3153 31.6989 22.7407C30.3068 22.1441 29.0804 21.2823 28.0197 20.1553C26.9148 19.0284 26.0862 17.7578 25.5337 16.3436C24.9813 14.9293 24.7051 13.482 24.7051 12.0015C24.7051 10.5209 24.9813 9.07357 25.5337 7.65934C26.0862 6.24512 26.9148 4.97453 28.0197 3.84757C29.0804 2.7427 30.3068 1.89196 31.6989 1.29533C33.1131 0.698704 34.5937 0.400391 36.1405 0.400391H56.5253C58.0721 0.400391 59.5416 0.698704 60.9337 1.29533C62.348 1.89196 63.5854 2.7427 64.6461 3.84757C65.751 4.97453 66.5796 6.24512 67.132 7.65934C67.6845 9.07357 67.9607 10.5209 67.9607 12.0015C67.9607 13.482 67.6845 14.9293 67.132 16.3436C66.5796 17.7578 65.751 19.0284 64.6461 20.1553C63.5854 21.2823 62.348 22.1441 60.9337 22.7407C59.5416 23.3153 58.0721 23.6025 56.5253 23.6025H36.1405ZM56.5253 20.3874C57.6081 20.3874 58.6356 20.1774 59.6079 19.7576C60.6023 19.3378 61.4862 18.7411 62.2596 17.9677C63.0551 17.128 63.6517 16.1999 64.0495 15.1835C64.4472 14.1449 64.6461 13.0842 64.6461 12.0015C64.6461 10.9187 64.4472 9.85802 64.0495 8.81945C63.6517 7.78088 63.0551 6.85279 62.2596 6.03519C61.4862 5.26179 60.6023 4.66516 59.6079 4.24532C58.6356 3.82547 57.6081 3.61554 56.5253 3.61554H36.1405C35.0577 3.61554 34.0191 3.82547 33.0247 4.24532C32.0525 4.66516 31.1796 5.26179 30.4062 6.03519C29.6107 6.85279 29.0141 7.78088 28.6163 8.81945C28.2186 9.85802 28.0197 10.9187 28.0197 12.0015C28.0197 13.0842 28.2186 14.1449 28.6163 15.1835C29.0141 16.1999 29.6107 17.128 30.4062 17.9677C31.1796 18.7411 32.0525 19.3378 33.0247 19.7576C34.0191 20.1774 35.0577 20.3874 36.1405 20.3874H56.5253Z" fill="white"/>
<path d="M21.8101 0.400391V23.6025H18.4955V6.53238L10.9051 14.9183L3.31461 6.53238V23.6025H0V0.400391H2.18764L10.9051 10.0127L19.6225 0.400391H21.8101Z" fill="white"/>
</svg>
