<svg width="822" height="53" viewBox="0 0 822 53" fill="none" xmlns="http://www.w3.org/2000/svg">
<g opacity="0.7">
<rect width="822" height="53" rx="26.5" fill="black"/>
<g filter="url(#filter1_i_1767_3279)">
<rect x="17.5176" y="17.7422" width="17.5167" height="17.5167" rx="8.75833" fill="white"/>
<path d="M26.2754 23.5801V29.419" stroke="#AE6BEF" stroke-width="1.45972" stroke-linecap="round"/>
<path d="M23.3555 26.5L29.1944 26.5" stroke="#AE6BEF" stroke-width="1.45972" stroke-linecap="round"/>
</g>
<path opacity="0.75" d="M49.1956 30.5L51.8757 22.708H53.0544L55.6724 30.5H54.655L53.9974 28.5024H50.8955L50.2131 30.5H49.1956ZM51.1436 27.7455H53.7492L52.4464 23.8867L51.1436 27.7455ZM59.385 30.6489C58.8101 30.6489 58.3304 30.5682 57.9457 30.4069C57.5611 30.2415 57.2695 30.0161 57.071 29.7307C56.8725 29.4412 56.767 29.1103 56.7546 28.7381H57.6852C57.7059 29.1145 57.8568 29.3978 58.1381 29.588C58.4234 29.7742 58.8101 29.8672 59.2982 29.8672C59.5546 29.8672 59.7903 29.8259 60.0054 29.7431C60.2205 29.6604 60.3921 29.5467 60.5203 29.4019C60.6485 29.2572 60.7126 29.0938 60.7126 28.9118C60.7126 28.6802 60.6279 28.4982 60.4583 28.3659C60.2887 28.2335 60.0178 28.1177 59.6456 28.0185L58.4917 27.6462C57.9912 27.4891 57.6066 27.274 57.3378 27.001C57.0731 26.7239 56.9407 26.3931 56.9407 26.0084C56.9407 25.5287 57.1517 25.144 57.5735 24.8545C57.9954 24.565 58.5496 24.4203 59.2361 24.4203C59.9641 24.4203 60.5286 24.5691 60.9298 24.8669C61.331 25.1647 61.5398 25.5369 61.5564 25.9836H60.601C60.5638 25.7231 60.4314 25.5266 60.2039 25.3943C59.9765 25.2578 59.6539 25.1895 59.2361 25.1895C58.835 25.1895 58.5206 25.2805 58.2932 25.4625C58.0698 25.6403 57.9582 25.8389 57.9582 26.0581C57.9582 26.4675 58.3097 26.7694 59.0128 26.9638L60.1915 27.3609C60.7002 27.5139 61.089 27.7145 61.3578 27.9626C61.6308 28.2108 61.7673 28.5272 61.7673 28.9118C61.7673 29.2096 61.6701 29.4908 61.4757 29.7555C61.2813 30.0202 61.0063 30.2353 60.6506 30.4007C60.2949 30.5662 59.8731 30.6489 59.385 30.6489ZM63.7698 30.5V22.038H64.7376V30.5H63.7698ZM64.5887 27.1003L67.6161 24.5691H68.9686L64.5887 28.1301V27.1003ZM67.9139 30.5L65.0974 26.7529L66.0776 26.5792L69.1051 30.5H67.9139ZM77.3782 30.5L77.2542 29.1972V26.6536C77.2542 26.1201 77.1404 25.7375 76.913 25.5059C76.6855 25.2702 76.3443 25.1523 75.8893 25.1523C75.6329 25.1523 75.3992 25.1895 75.1883 25.264C74.9815 25.3384 74.8161 25.4542 74.692 25.6114C74.572 25.7644 74.5121 25.9629 74.5121 26.207H73.4326C73.4326 25.7768 73.5381 25.4315 73.749 25.1709C73.9599 24.9062 74.2494 24.716 74.6175 24.6002C74.9898 24.4802 75.4137 24.4203 75.8893 24.4203C76.3443 24.4203 76.7475 24.4968 77.0991 24.6498C77.4506 24.8028 77.7257 25.0468 77.9242 25.3818C78.1227 25.7127 78.222 26.1449 78.222 26.6784V30.5H77.3782ZM75.3558 30.6489C74.8678 30.6489 74.4645 30.562 74.1461 30.3883C73.8276 30.2146 73.5898 29.9892 73.4326 29.7121C73.2754 29.435 73.1969 29.1434 73.1969 28.8374C73.1969 28.4362 73.2961 28.1095 73.4946 27.8572C73.6973 27.6049 73.9723 27.4208 74.3198 27.305C74.6672 27.1851 75.058 27.1251 75.4923 27.1251C75.8025 27.1251 76.1127 27.1561 76.4229 27.2182C76.7372 27.2802 77.0432 27.365 77.341 27.4725V28.0805C77.0929 27.9812 76.8116 27.9027 76.4973 27.8448C76.1871 27.7869 75.9017 27.7579 75.6412 27.7579C75.2441 27.7579 74.9091 27.8406 74.6362 28.0061C74.3632 28.1674 74.2267 28.4445 74.2267 28.8374C74.2267 29.1269 74.3301 29.375 74.5369 29.5818C74.7478 29.7886 75.0828 29.892 75.5419 29.892C75.8645 29.892 76.154 29.8176 76.4104 29.6687C76.671 29.5157 76.8757 29.3254 77.0246 29.0979C77.1777 28.8705 77.2542 28.643 77.2542 28.4155H77.4899C77.4899 28.8126 77.4031 29.1807 77.2293 29.5198C77.0598 29.8589 76.8158 30.1319 76.4973 30.3387C76.1788 30.5455 75.7983 30.6489 75.3558 30.6489ZM84.7581 30.5V27.0135C84.7581 26.4468 84.6216 26.0167 84.3486 25.7231C84.0798 25.4253 83.7117 25.2764 83.2443 25.2764C82.8887 25.2764 82.5805 25.3736 82.32 25.568C82.0594 25.7623 81.8588 26.0415 81.7182 26.4055C81.5776 26.7653 81.5073 27.1954 81.5073 27.6959H81.135C81.135 27.0052 81.226 26.4158 81.408 25.9278C81.59 25.4398 81.8547 25.0675 82.2021 24.8111C82.5536 24.5505 82.9796 24.4203 83.4801 24.4203C83.9474 24.4203 84.3466 24.5257 84.6774 24.7367C85.0124 24.9434 85.2689 25.2412 85.4467 25.63C85.6245 26.0188 85.7135 26.4799 85.7135 27.0135V30.5H84.7581ZM80.5395 30.5V24.5691H81.3708L81.5073 25.934V30.5H80.5395ZM87.0475 24.5691H88.1269L90.0625 29.6563H89.8392L91.3405 24.5691H92.3331L90.0998 31.6911C89.9136 32.2867 89.6655 32.7458 89.3553 33.0684C89.0451 33.391 88.6481 33.5523 88.1642 33.5523C87.9036 33.5523 87.6555 33.5151 87.4197 33.4406C87.1881 33.3662 86.9482 33.2586 86.7001 33.118V32.2247C86.9193 32.3984 87.1302 32.5224 87.3329 32.5969C87.5396 32.6713 87.7547 32.7086 87.9781 32.7086C88.2262 32.7086 88.433 32.63 88.5984 32.4728C88.768 32.3157 88.9086 32.113 89.0203 31.8648C89.132 31.6208 89.2271 31.3644 89.3057 31.0956L89.4794 30.5L87.0475 24.5691ZM95.6313 30.6489C95.3087 30.6489 95.0192 30.5869 94.7628 30.4628C94.5064 30.3387 94.3037 30.1526 94.1548 29.9044C94.0059 29.6563 93.9315 29.3461 93.9315 28.9739V22.9189H94.8869V28.949C94.8869 29.5612 95.1722 29.8672 95.743 29.8672C95.9126 29.8672 96.0759 29.8486 96.2331 29.8114C96.3944 29.7742 96.5743 29.7183 96.7728 29.6439L96.9093 30.3387C96.6984 30.4297 96.4875 30.5041 96.2765 30.562C96.0697 30.6199 95.8547 30.6489 95.6313 30.6489ZM92.9761 25.2392V24.5691H96.7604V25.2392H92.9761ZM102.691 30.5V27.0135C102.691 26.4468 102.555 26.0167 102.282 25.7231C102.013 25.4253 101.645 25.2764 101.177 25.2764C100.822 25.2764 100.513 25.3736 100.253 25.568C99.9923 25.7623 99.7917 26.0415 99.6511 26.4055C99.5105 26.7653 99.4402 27.1954 99.4402 27.6959H99.068C99.068 27.0052 99.1589 26.4158 99.3409 25.9278C99.5229 25.4398 99.7876 25.0675 100.135 24.8111C100.487 24.5505 100.913 24.4203 101.413 24.4203C101.88 24.4203 102.279 24.5257 102.61 24.7367C102.945 24.9434 103.202 25.2412 103.38 25.63C103.557 26.0188 103.646 26.4799 103.646 27.0135V30.5H102.691ZM98.4724 30.5V22.038H99.4402V30.5H98.4724ZM106.507 23.1671C106.308 23.1671 106.151 23.1113 106.035 22.9996C105.919 22.8838 105.861 22.7328 105.861 22.5467C105.861 22.3647 105.919 22.22 106.035 22.1124C106.151 22.0049 106.308 21.9511 106.507 21.9511C106.705 21.9511 106.862 22.0049 106.978 22.1124C107.094 22.22 107.152 22.3647 107.152 22.5467C107.152 22.7328 107.094 22.8838 106.978 22.9996C106.862 23.1113 106.705 23.1671 106.507 23.1671ZM106.023 30.5V24.5567H106.99V30.5H106.023ZM113.875 30.5V27.0135C113.875 26.4468 113.738 26.0167 113.465 25.7231C113.197 25.4253 112.828 25.2764 112.361 25.2764C112.005 25.2764 111.697 25.3736 111.437 25.568C111.176 25.7623 110.976 26.0415 110.835 26.4055C110.694 26.7653 110.624 27.1954 110.624 27.6959H110.252C110.252 27.0052 110.343 26.4158 110.525 25.9278C110.707 25.4398 110.971 25.0675 111.319 24.8111C111.67 24.5505 112.096 24.4203 112.597 24.4203C113.064 24.4203 113.463 24.5257 113.794 24.7367C114.129 24.9434 114.386 25.2412 114.563 25.63C114.741 26.0188 114.83 26.4799 114.83 27.0135V30.5H113.875ZM109.656 30.5V24.5691H110.488L110.624 25.934V30.5H109.656ZM119.241 33.5523C118.633 33.5523 118.106 33.4654 117.659 33.2917C117.213 33.1221 116.865 32.8926 116.617 32.6031C116.373 32.3177 116.251 32.0013 116.251 31.6539C116.251 31.1948 116.419 30.8433 116.754 30.5993C117.093 30.3594 117.529 30.2394 118.063 30.2394L118.596 30.5744C118.149 30.5744 117.804 30.6675 117.56 30.8536C117.316 31.0397 117.194 31.2941 117.194 31.6167C117.194 31.9393 117.368 32.2123 117.715 32.4356C118.063 32.6589 118.571 32.7706 119.241 32.7706C119.738 32.7706 120.172 32.6982 120.544 32.5535C120.92 32.4128 121.212 32.2267 121.419 31.9951C121.63 31.7676 121.735 31.5216 121.735 31.2569C121.735 31.0708 121.667 30.9095 121.531 30.773C121.394 30.6406 121.185 30.5744 120.904 30.5744H118.596C118.195 30.5744 117.848 30.5145 117.554 30.3945C117.264 30.2705 117.041 30.1092 116.884 29.9106C116.727 29.7121 116.648 29.495 116.648 29.2592C116.648 29.0111 116.718 28.8002 116.859 28.6264C117 28.4527 117.182 28.3204 117.405 28.2294C117.632 28.1384 117.876 28.0929 118.137 28.0929L118.323 28.4527C118.199 28.4527 118.073 28.4817 117.945 28.5396C117.821 28.5934 117.715 28.6761 117.628 28.7877C117.546 28.8953 117.504 29.0318 117.504 29.1972C117.504 29.3874 117.583 29.5467 117.74 29.6749C117.897 29.8031 118.183 29.8672 118.596 29.8672H120.904C121.462 29.8672 121.901 29.9851 122.219 30.2208C122.542 30.4566 122.703 30.7854 122.703 31.2072C122.703 31.596 122.565 31.9682 122.287 32.3239C122.01 32.6837 121.613 32.9774 121.096 33.2049C120.579 33.4365 119.961 33.5523 119.241 33.5523ZM119.415 28.7629C118.96 28.7629 118.549 28.6719 118.18 28.49C117.817 28.308 117.527 28.0536 117.312 27.7269C117.101 27.4002 116.996 27.0217 116.996 26.5916C116.996 26.1573 117.101 25.7768 117.312 25.4501C117.527 25.1234 117.817 24.8711 118.18 24.6932C118.549 24.5112 118.96 24.4203 119.415 24.4203C119.858 24.4203 120.259 24.5112 120.619 24.6932C120.983 24.8711 121.272 25.1234 121.487 25.4501C121.702 25.7768 121.81 26.1573 121.81 26.5916C121.81 27.0217 121.702 27.4002 121.487 27.7269C121.272 28.0536 120.983 28.308 120.619 28.49C120.259 28.6719 119.858 28.7629 119.415 28.7629ZM119.415 28.0681C119.87 28.0681 120.224 27.9275 120.476 27.6462C120.728 27.365 120.854 27.0135 120.854 26.5916C120.854 26.1573 120.728 25.8058 120.476 25.5369C120.224 25.264 119.87 25.1275 119.415 25.1275C118.964 25.1275 118.609 25.264 118.348 25.5369C118.092 25.8058 117.963 26.1573 117.963 26.5916C117.963 27.0135 118.092 27.365 118.348 27.6462C118.609 27.9275 118.964 28.0681 119.415 28.0681ZM121.363 25.3632L120.904 25.1771C120.904 24.8297 120.972 24.5257 121.109 24.2652C121.245 24.0005 121.44 23.7957 121.692 23.651C121.944 23.5021 122.244 23.4276 122.591 23.4276L122.517 24.383C122.145 24.383 121.859 24.4637 121.661 24.625C121.462 24.7821 121.363 25.0282 121.363 25.3632Z" fill="#DFCCEE"/>
<path d="M757.156 25.0407L757.156 27.9601M760.441 22.1212L760.441 30.8796M763.725 19.9316V33.0691M767.009 22.1212V30.8796M770.294 25.0407V27.9601" stroke="#AE6BEF" stroke-width="1.45972" stroke-linecap="round" stroke-linejoin="round"/>
<path d="M789.322 17.5L792.322 26.5L789.322 35.5L808.322 26.5L789.322 17.5Z" stroke="url(#paint0_linear_1767_3279)" stroke-width="1.5" stroke-linecap="round" stroke-linejoin="round"/>
<path d="M789.322 17.5L792.322 26.5L789.322 35.5L808.322 26.5L789.322 17.5Z" stroke="black" stroke-opacity="0.05" stroke-width="1.5" stroke-linecap="round" stroke-linejoin="round"/>
<path d="M792.322 26.5H808.322" stroke="url(#paint1_linear_1767_3279)" stroke-width="1.5" stroke-linecap="round" stroke-linejoin="round"/>
<path d="M792.322 26.5H808.322" stroke="black" stroke-opacity="0.05" stroke-width="1.5" stroke-linecap="round" stroke-linejoin="round"/>
</g>
<defs>
<filter id="filter1_i_1767_3279" x="17.5176" y="17.0123" width="17.5176" height="18.2474" filterUnits="userSpaceOnUse" color-interpolation-filters="sRGB">
<feFlood flood-opacity="0" result="BackgroundImageFix"/>
<feBlend mode="normal" in="SourceGraphic" in2="BackgroundImageFix" result="shape"/>
<feColorMatrix in="SourceAlpha" type="matrix" values="0 0 0 0 0 0 0 0 0 0 0 0 0 0 0 0 0 0 127 0" result="hardAlpha"/>
<feOffset dy="-0.729861"/>
<feGaussianBlur stdDeviation="0.729861"/>
<feComposite in2="hardAlpha" operator="arithmetic" k2="-1" k3="1"/>
<feColorMatrix type="matrix" values="0 0 0 0 0.363104 0 0 0 0 0.401094 0 0 0 0 0.420088 0 0 0 1 0"/>
<feBlend mode="normal" in2="shape" result="effect1_innerShadow_1767_3279"/>
</filter>
<linearGradient id="paint0_linear_1767_3279" x1="789.322" y1="17.5" x2="809.599" y2="18.9648" gradientUnits="userSpaceOnUse">
<stop stop-color="#F9BC2E"/>
<stop offset="0.132392" stop-color="#E29A1E"/>
<stop offset="0.302201" stop-color="#FFCD38"/>
<stop offset="0.728712" stop-color="#F0AF30"/>
<stop offset="0.834676" stop-color="#E29A1E"/>
<stop offset="0.960427" stop-color="#FFCD38"/>
<stop offset="1" stop-color="#DD931A"/>
</linearGradient>
<linearGradient id="paint1_linear_1767_3279" x1="792.322" y1="26.5" x2="800.128" y2="35.0468" gradientUnits="userSpaceOnUse">
<stop stop-color="#F9BC2E"/>
<stop offset="0.132392" stop-color="#E29A1E"/>
<stop offset="0.302201" stop-color="#FFCD38"/>
<stop offset="0.728712" stop-color="#F0AF30"/>
<stop offset="0.834676" stop-color="#E29A1E"/>
<stop offset="0.960427" stop-color="#FFCD38"/>
<stop offset="1" stop-color="#DD931A"/>
</linearGradient>
</defs>
</svg>
