<svg width="1203" height="198" viewBox="0 0 1203 198" fill="none" xmlns="http://www.w3.org/2000/svg">
<g clip-path="url(#clip0_4483_11108)">
<path d="M114.599 74.6035C121.442 74.829 127.821 76.367 133.771 79.2109C140.26 82.3122 145.888 86.6036 150.665 92.0967L150.67 92.1025C155.479 97.5818 159.298 104.009 162.115 111.354C164.919 118.663 166.34 126.514 166.34 134.944C166.34 143.382 164.917 151.53 162.113 158.911C159.295 166.331 155.474 172.835 150.66 178.415C145.855 183.985 140.222 188.351 133.753 191.551C127.299 194.73 120.34 196.303 112.826 196.303H2.64746V173.154H112.826C117.503 173.154 121.908 172.159 126.045 170.195C130.167 168.238 133.755 165.503 136.883 162.065L136.893 162.055C140 158.585 142.456 154.572 144.21 149.956C145.97 145.349 146.843 140.398 146.843 135.143C146.843 129.875 145.966 125.17 144.209 120.571C142.458 115.988 140.025 111.991 136.874 108.604H136.875C133.765 105.235 130.152 102.556 126.045 100.606C122.556 98.9404 118.841 97.9758 114.944 97.7197V97.6475H114.599V74.6035ZM56.1602 2.53809H166.34V25.6611H56.1602C51.4835 25.6611 47.0787 26.6562 42.9414 28.6201C39.0765 30.4548 35.6818 32.9738 32.6953 36.1143L32.1035 36.75L32.0938 36.7607C28.9868 40.2302 26.5309 44.2414 24.7773 48.8564C23.0167 53.4653 22.1445 58.4179 22.1445 63.6982C22.1445 68.9912 23.0208 73.6716 24.7773 78.2695C26.5292 82.8552 28.964 86.8545 32.1172 90.2422V90.2412C35.2263 93.6081 38.8363 96.2847 42.9414 98.2334C47.0574 100.199 51.4871 101.192 56.1602 101.192H111.399V124.267H56.1602C48.6419 124.267 41.676 122.717 35.2148 119.629C28.7263 116.528 23.0987 112.237 18.3223 106.744L18.3193 106.74L17.8711 106.222C13.2688 100.832 9.60068 94.5994 6.87207 87.4863C4.06814 80.1769 2.64746 72.3263 2.64746 63.8955C2.64748 55.4582 4.0703 47.3105 6.87402 39.9297C9.69258 32.5099 13.5124 26.006 18.3262 20.4258C23.1318 14.8551 28.7657 10.4876 35.2363 7.28809L35.2354 7.28711C41.6887 4.10831 48.6472 2.53809 56.1602 2.53809Z" fill="white" fill-opacity="0.4" stroke="url(#paint0_linear_4483_11108)" stroke-width="3.54462"/>
</g>
<g clip-path="url(#clip1_4483_11108)">
<path d="M251.575 84.5625V170.27H253.348V172.018H365.476V196.227H219.226V84.5625H251.575ZM365.501 84.5625V108.771H292.101V84.5625H365.501ZM365.476 3.12793V27.3369H219.226V3.12793H365.476Z" fill="white" fill-opacity="0.4" stroke="url(#paint1_linear_4483_11108)" stroke-width="3.54462"/>
</g>
<g clip-path="url(#clip2_4483_11108)">
<path d="M446.811 2.04199V171.475H536.189V196.226H418.358V2.04199H446.811Z" fill="white" fill-opacity="0.4" stroke="url(#paint2_linear_4483_11108)" stroke-width="3.54462"/>
</g>
<g clip-path="url(#clip3_4483_11108)">
<path d="M616.959 2.58496V132.82C616.959 138.282 618.1 143.43 620.414 148.265C622.709 153.06 625.83 157.263 629.791 160.915C633.745 164.584 638.433 167.436 643.807 169.483C649.197 171.537 654.888 172.56 660.867 172.56C666.834 172.56 672.848 171.541 678.249 169.483C683.621 167.437 688.353 164.587 692.4 160.927C696.436 157.277 699.637 153.047 701.937 148.268L701.938 148.265C704.252 143.43 705.393 138.282 705.393 132.82V2.58496H733.203V132.82C733.203 141.712 731.312 149.981 727.562 157.623C723.915 165.058 718.917 171.571 712.624 177.125L712.011 177.66C705.394 183.362 697.706 187.873 688.929 191.21C680.162 194.533 670.731 196.226 660.571 196.226C650.414 196.226 641.308 194.559 632.669 191.214L632.663 191.212L631.851 190.896C623.491 187.594 616.173 183.167 609.882 177.668C603.374 171.977 598.293 165.311 594.625 157.639L594.623 157.635L594.283 156.917C590.833 149.477 589.124 141.445 589.124 132.82V2.58496H616.959Z" fill="white" fill-opacity="0.4" stroke="url(#paint3_linear_4483_11108)" stroke-width="3.54462"/>
</g>
<g clip-path="url(#clip4_4483_11108)">
<path d="M855.46 1.77246C864.303 1.77246 872.562 2.79256 880.271 4.82227C888.006 6.85932 895.091 9.61645 901.532 13.1357V13.1367C917.289 22.0751 927.855 34.5681 933.289 50.6182C933.483 51.4848 933.679 52.2936 933.879 53.0176C934.076 53.7317 934.355 54.5073 934.704 55.3271V56.6973L934.856 57.041C935.163 57.7318 935.368 58.5268 935.451 59.4424C935.554 60.5702 935.706 61.6698 935.908 62.7881C936.097 64.0867 936.184 65.0514 936.184 66.0166V73.5654C936.184 74.5404 936.095 75.4954 935.916 76.4805L935.888 76.6377V77.1875C935.697 78.2553 935.551 79.2834 935.452 80.2715C935.37 81.09 935.163 81.9821 934.811 82.9512L934.704 83.2441V84.3086C933.982 86.1596 933.495 87.8301 933.249 89.3281C930.534 97.1577 926.515 104.174 921.21 110.436C915.88 116.726 909.313 122.072 901.513 126.468L901.326 126.572L901.17 126.719C901.036 126.844 900.813 126.985 900.337 127.138C899.527 127.38 898.814 127.769 898.2 128.311L897.124 129.26L897.828 130.51L934.898 196.302H905.191L871.927 137.671L871.323 136.607L870.114 136.794C868.363 137.065 866.605 137.269 864.835 137.437L863.079 137.592C860.729 137.761 858.181 137.858 855.436 137.858H814.487V196.326H786.085V115.16L816.255 116.092H861.131V115.963C867.268 115.755 872.952 114.46 878.181 112.058C883.849 109.453 888.77 105.996 892.927 101.686C897.068 97.3905 900.364 92.483 902.838 86.999C905.335 81.465 906.572 75.6656 906.572 69.6426C906.572 63.6068 905.329 58.0589 902.843 52.4453C900.368 46.8577 897.068 41.9393 892.912 37.7324C889.021 33.7929 884.479 30.5334 879.236 27.9961L878.179 27.499C872.45 24.8672 866.151 23.5635 859.358 23.5635H786.085V1.77246H855.46Z" fill="white" fill-opacity="0.4" stroke="url(#paint4_linear_4483_11108)" stroke-width="3.54462"/>
</g>
<g clip-path="url(#clip5_4483_11108)">
<path d="M1199.14 196.228H1096.48V169.157H1153.31L1151.87 166.529L1096.26 65.6787L1094.71 62.8633L1093.16 65.6797L1021.21 196.228H990.302L1094.71 4.25098L1199.14 196.228Z" fill="white" fill-opacity="0.4" stroke="url(#paint5_linear_4483_11108)" stroke-width="3.54462"/>
</g>
<defs>
<linearGradient id="paint0_linear_4483_11108" x1="152.737" y1="7.57512" x2="14.6316" y2="7.57512" gradientUnits="userSpaceOnUse">
<stop stop-color="white" stop-opacity="0.2"/>
<stop offset="0.485577" stop-color="white"/>
<stop offset="1" stop-color="white" stop-opacity="0.2"/>
</linearGradient>
<linearGradient id="paint1_linear_4483_11108" x1="353.499" y1="8.14197" x2="229.777" y2="8.14197" gradientUnits="userSpaceOnUse">
<stop stop-color="white" stop-opacity="0.2"/>
<stop offset="0.485577" stop-color="white"/>
<stop offset="1" stop-color="white" stop-opacity="0.2"/>
</linearGradient>
<linearGradient id="paint2_linear_4483_11108" x1="526.803" y1="7.0935" x2="426.57" y2="7.0935" gradientUnits="userSpaceOnUse">
<stop stop-color="white" stop-opacity="0.2"/>
<stop offset="0.485577" stop-color="white"/>
<stop offset="1" stop-color="white" stop-opacity="0.2"/>
</linearGradient>
<linearGradient id="paint3_linear_4483_11108" x1="721.404" y1="7.61774" x2="599.495" y2="7.61774" gradientUnits="userSpaceOnUse">
<stop stop-color="white" stop-opacity="0.2"/>
<stop offset="0.485577" stop-color="white"/>
<stop offset="1" stop-color="white" stop-opacity="0.2"/>
</linearGradient>
<linearGradient id="paint4_linear_4483_11108" x1="923.831" y1="6.83674" x2="796.951" y2="6.83674" gradientUnits="userSpaceOnUse">
<stop stop-color="white" stop-opacity="0.2"/>
<stop offset="0.485577" stop-color="white"/>
<stop offset="1" stop-color="white" stop-opacity="0.2"/>
</linearGradient>
<linearGradient id="paint5_linear_4483_11108" x1="1182.37" y1="7.35757" x2="1004.99" y2="7.35757" gradientUnits="userSpaceOnUse">
<stop stop-color="white" stop-opacity="0.2"/>
<stop offset="0.485577" stop-color="white"/>
<stop offset="1" stop-color="white" stop-opacity="0.2"/>
</linearGradient>
<clipPath id="clip0_4483_11108">
<rect width="167.237" height="197.186" fill="white" transform="translate(0.875 0.8125)"/>
</clipPath>
<clipPath id="clip1_4483_11108">
<rect width="149.795" height="196.643" fill="white" transform="translate(217.453 1.35547)"/>
</clipPath>
<clipPath id="clip2_4483_11108">
<rect width="121.376" height="197.729" fill="white" transform="translate(416.586 0.269531)"/>
</clipPath>
<clipPath id="clip3_4483_11108">
<rect width="147.674" height="197.186" fill="white" transform="translate(587.305 0.8125)"/>
</clipPath>
<clipPath id="clip4_4483_11108">
<rect width="153.668" height="198" fill="white" transform="translate(784.312)"/>
</clipPath>
<clipPath id="clip5_4483_11108">
<rect width="214.8" height="197.457" fill="white" transform="translate(987.32 0.542969)"/>
</clipPath>
</defs>
</svg>
